<svg width="121" height="42" viewBox="0 0 121 42" xmlns="http://www.w3.org/2000/svg"><g fill="#1d1d1d"><path d="M7.858 4.516c-.868 0-1.571.708-1.571 1.58v29.807c0 .873.703 1.58 1.571 1.58.869 0 1.572-.707 1.572-1.58V6.097c0-.873-.703-1.581-1.572-1.581zM1.572 15.355c-.868 0-1.572.707-1.572 1.58v8.13c0 .872.704 1.58 1.572 1.58.868 0 1.571-.708 1.571-1.58v-8.13c0-.873-.703-1.58-1.571-1.58zM14.145.903c-.868 0-1.571.708-1.571 1.58v37.033c0 .873.703 1.58 1.571 1.58s1.572-.707 1.572-1.58V2.484c0-.873-.704-1.581-1.572-1.581zm25.661 26.354l-6.23-6.266 6.193-6.23a1.588 1.588 0 0 0 0-2.235 1.566 1.566 0 0 0-2.223 0L22.004 28.157v-4.605l14.41-14.437a1.587 1.587 0 0 0 .004-2.236 1.565 1.565 0 0 0-2.223-.004L22.004 19.09v-4.343l9.539-9.594a1.588 1.588 0 0 0 0-2.235 1.566 1.566 0 0 0-2.223 0l-7.316 7.358V1.58C22.004.707 21.3 0 20.432 0c-.868 0-1.572.707-1.572 1.58v38.84c0 .872.704 1.58 1.572 1.58.868 0 1.572-.708 1.572-1.58v-7.628l6.617 6.655a1.564 1.564 0 0 0 2.223 0 1.588 1.588 0 0 0 0-2.235l-6.698-6.737 2.491-2.507 7.316 7.358a1.564 1.564 0 0 0 2.224 0 1.588 1.588 0 0 0 0-2.235l-7.316-7.358 2.491-2.507 6.232 6.267a1.563 1.563 0 0 0 2.222 0 1.587 1.587 0 0 0 0-2.236zM60.59 15.183l-4.24 5.068v-5.068H54v11.272h2.35v-3.34l1.065-1.267 3.34 4.607h2.846l-4.461-6.223 4.296-5.049h-2.845zm8.352 0l-4.314 11.272h2.35l.991-2.717h4.223l1.01 2.717h2.386l-4.314-11.272h-2.332zm1.139 2.828l1.376 3.745h-2.754l1.378-3.745zm9.746 2.313h2.166c1.175 0 1.781-.624 1.781-1.56 0-.955-.606-1.58-1.78-1.58h-2.167v3.14zm0 1.927v4.204h-2.332V15.183h4.645c2.368 0 3.947 1.267 3.947 3.58 0 1.8-.991 2.938-2.57 3.323l2.974 4.37h-2.643l-2.791-4.205h-1.23zm10.995 2.222h2.221c1.102 0 1.69-.551 1.69-1.414 0-.881-.588-1.413-1.69-1.413h-2.22v2.827zm1.91-4.663c1.12 0 1.707-.44 1.707-1.34 0-.9-.588-1.304-1.708-1.304h-1.909v2.644h1.91zm4.295 3.45c0 2.075-1.432 3.195-3.782 3.195h-4.68V15.183h4.314c2.35 0 3.8 1.047 3.8 3.066 0 1.212-.661 2.093-1.488 2.387 1.065.349 1.836 1.395 1.836 2.625zm7.012-6.167c-1.781 0-2.938 1.524-2.938 3.726 0 2.203 1.157 3.727 2.938 3.727 1.8 0 2.974-1.524 2.974-3.727 0-2.202-1.175-3.726-2.974-3.726zm0 9.546c-3.14 0-5.324-2.46-5.324-5.82 0-3.377 2.184-5.819 5.324-5.819 3.139 0 5.342 2.442 5.342 5.82 0 3.359-2.203 5.819-5.342 5.819zM121 26.455h-1.854l-5.324-7.508v7.508h-2.258V15.184h2.203l4.975 7.122v-7.122H121v11.271z"/></g></svg>
