<svg width="72" height="52" viewBox="0 0 72 52" fill="none" xmlns="http://www.w3.org/2000/svg">
<path d="M64.8996 42.2163L64.7483 4.99997C64.7393 2.79085 62.9412 1.00728 60.7321 1.01626L10.2489 1.2215C8.0398 1.23048 6.25624 3.0286 6.26522 5.23772L6.41652 42.4541L64.8996 42.2163Z" fill="white" stroke="#303030" stroke-width="2" stroke-linejoin="round"/>
<path d="M70.3164 42.1933L70.3309 45.7692C70.3399 47.9783 68.5563 49.7764 66.3472 49.7854L5.03076 50.0347C2.82165 50.0437 1.02352 48.2601 1.01454 46.051L0.999999 42.4751L70.3164 42.1933Z" fill="white" stroke="#303030" stroke-width="2" stroke-linejoin="round"/>
<path d="M25.3532 16.2046L23.8026 22.556C23.1796 25.0854 24.7101 27.6773 27.2743 28.3214L46.6289 33.107L40.2017 26.5565L41.7661 20.2611C42.3892 17.7317 40.8587 15.1398 38.2944 14.4958L31.1745 12.7191C28.5543 12.0888 25.9762 13.6752 25.3532 16.2046Z" fill="#FFC24A" stroke="#303030" stroke-width="2" stroke-miterlimit="10" stroke-linecap="round" stroke-linejoin="round"/>
</svg>
