<svg fill="none" xmlns="http://www.w3.org/2000/svg" viewBox="0 0 54 73"><path d="M41.333 70.126A53.087 53.087 0 0127.363 72c-4.806 0-9.49-.646-13.998-1.873l2.619-5.053A53.13 53.13 0 0027.363 66.3a52.88 52.88 0 0011.351-1.227l2.619 5.053zM43.763 55.28c0-.391.014-.768.014-1.16 0-8.65-1.161-16.964-3.307-24.725 4.886 6.427 8.868 13.892 11.73 22.125a52.843 52.843 0 01-8.437 3.76z" fill="#fff" stroke="#303030" stroke-width="2" stroke-miterlimit="10"/><path d="M43.762 54.13c0 .39 0 .767-.013 1.158a90.716 90.716 0 01-.473 8.408 47.508 47.508 0 01-5.264 1.442 50.254 50.254 0 01-10.69 1.159c-3.645 0-7.221-.39-10.704-1.159a51.442 51.442 0 01-5.682-1.59 95.72 95.72 0 01-.46-8.408v-1.01c0-8.786 1.202-17.208 3.402-25.064a84.839 84.839 0 012.929-8.664c1.39.296 2.794.54 4.211.714 2.066.27 4.171.404 6.304.404 1.944 0 3.874-.107 5.777-.336a52.067 52.067 0 004.346-.701 85.426 85.426 0 012.997 8.92c2.16 7.748 3.32 16.062 3.32 24.726z" fill="#fff" stroke="#303030" stroke-width="2" stroke-miterlimit="10"/><path d="M37.472 20.487c-1.43.297-2.875.526-4.346.701a51.34 51.34 0 01-5.777.337c-2.133 0-4.225-.135-6.304-.404a49.027 49.027 0 01-4.211-.714 84.58 84.58 0 013.887-8.368A77.55 77.55 0 0127.133 2a76.108 76.108 0 016.384 9.971 81.882 81.882 0 013.955 8.516zM10.49 54.136v1.011A54.129 54.129 0 012 51.267c2.902-8.26 6.951-15.766 11.892-22.18-2.2 7.829-3.402 16.264-3.402 25.05z" fill="#fff" stroke="#303030" stroke-width="2" stroke-miterlimit="10"/><path d="M27.348 53.107c5.748 0 10.407-4.65 10.407-10.389 0-5.737-4.66-10.389-10.407-10.389s-10.407 4.652-10.407 10.39c0 5.737 4.66 10.388 10.407 10.388z" fill="#FFC24A" stroke="#303030" stroke-width="2" stroke-miterlimit="10"/></svg>