<svg fill="none" xmlns="http://www.w3.org/2000/svg" viewBox="0 0 38 68"><rect x="1" y="1" width="36" height="66" rx="6" fill="#fff" stroke="#303030" stroke-width="2"/><path d="M27.253 1v.25c0 1.832-1.486 3.326-3.308 3.326h-9.11a3.312 3.312 0 01-3.308-3.327V1h15.726z" fill="#303030"/><path d="M13.873 24H9.127A2.123 2.123 0 017 21.873v-4.746C7 15.95 7.95 15 9.127 15h4.746C15.05 15 16 15.95 16 17.127v4.746A2.128 2.128 0 0113.873 24z" fill="#FFC257" stroke="#303030" stroke-width="2" stroke-miterlimit="10"/><path d="M13.873 39H9.127A2.123 2.123 0 017 36.873v-4.746C7 30.95 7.95 30 9.127 30h4.746C15.05 30 16 30.95 16 32.127v4.746A2.128 2.128 0 0113.873 39zM28.873 24h-4.746A2.123 2.123 0 0122 21.873v-4.746C22 15.95 22.95 15 24.127 15h4.746C30.05 15 31 15.95 31 17.127v4.746A2.128 2.128 0 0128.873 24z" fill="#fff" stroke="#303030" stroke-width="2" stroke-miterlimit="10"/><path d="M28.873 39h-4.746A2.123 2.123 0 0122 36.873v-4.746C22 30.95 22.95 30 24.127 30h4.746C30.05 30 31 30.95 31 32.127v4.746A2.128 2.128 0 0128.873 39z" fill="#FF8947" stroke="#303030" stroke-width="2" stroke-miterlimit="10"/><path d="M13.873 54H9.127A2.123 2.123 0 017 51.873v-4.746C7 45.95 7.95 45 9.127 45h4.746C15.05 45 16 45.95 16 47.127v4.746A2.128 2.128 0 0113.873 54z" fill="#FFC257" stroke="#303030" stroke-width="2" stroke-miterlimit="10"/><path d="M28.873 54h-4.746A2.123 2.123 0 0122 51.873v-4.746C22 45.95 22.95 45 24.127 45h4.746C30.05 45 31 45.95 31 47.127v4.746A2.128 2.128 0 0128.873 54z" fill="#fff" stroke="#303030" stroke-width="2" stroke-miterlimit="10"/></svg>