<svg fill="none" xmlns="http://www.w3.org/2000/svg" viewBox="0 0 67 70"><rect x="1" y="7.885" width="64.557" height="61.115" rx="3" fill="#fff" stroke="#303030" stroke-width="2"/><path d="M1 10.885a3 3 0 013-3h58.557a3 3 0 013 3v12.213H1V10.885z" fill="#fff" stroke="#303030" stroke-width="2"/><rect x="9.032" y="30.836" width="11.771" height="11.771" rx="2" fill="#FFC24A" stroke="#303030" stroke-width="2"/><rect x="9.032" y="49.197" width="11.771" height="11.771" rx="2" stroke="#303030" stroke-width="2"/><rect x="27.394" y="30.836" width="11.771" height="11.771" rx="2" stroke="#303030" stroke-width="2"/><rect x="17.065" y="1" width="9.475" height="16.361" rx="4.738" fill="#fff" stroke="#303030" stroke-width="2"/><rect x="40.017" y="1" width="9.475" height="16.361" rx="4.738" fill="#fff" stroke="#303030" stroke-width="2"/><rect x="27.394" y="49.197" width="11.771" height="11.771" rx="2" fill="#FF8947" stroke="#303030" stroke-width="2"/><rect x="45.754" y="30.836" width="11.771" height="11.771" rx="2" fill="#FFC24A" stroke="#303030" stroke-width="2"/><rect x="45.754" y="49.197" width="11.771" height="11.771" rx="2" stroke="#303030" stroke-width="2"/></svg>