<svg fill="none" xmlns="http://www.w3.org/2000/svg" viewBox="0 0 61 72"><path d="M44.198 35.586c0 10.502-8.33 19.09-18.817 19.606V15.98c10.488.516 18.817 9.105 18.817 19.607z" fill="#FFC24A" stroke="#303030" stroke-width="2"/><path d="M21.233 56.058c-6.19-4.007-10.422-11.5-10.566-20.148-.143-8.773 3.957-16.685 10.16-20.968l-.352-.02C8.982 15.109-.185 24.496.003 35.886c.188 11.39 9.66 20.477 21.152 20.29l.078-.118z" fill="#303030"/><path d="M23.55 0v9.078M23.55 62.922V72M60 35.989l-9.16.012M49.389 10.602l-6.466 6.425M49.504 61.374l-6.487-6.408" stroke="#303030" stroke-width="2"/></svg>