<svg fill="none" xmlns="http://www.w3.org/2000/svg" viewBox="0 0 43 72"><path d="M36.394 71H5.941A4.946 4.946 0 011 66.059V5.94A4.946 4.946 0 015.941 1h30.453a4.946 4.946 0 014.941 4.941V66.06A4.946 4.946 0 0136.394 71z" fill="#fff" stroke="#303030" stroke-width="2"/><path d="M35.98 33.757h-1.465a1.257 1.257 0 01-1.211-.966 13.58 13.58 0 00-1.211-3.034 1.34 1.34 0 01.203-1.573l1.042-1.076a15.361 15.361 0 00-3.278-3.402l-1.041 1.077a1.226 1.226 0 01-1.516.213 12.08 12.08 0 00-2.922-1.256 1.293 1.293 0 01-.931-1.256v-1.522a14.571 14.571 0 00-4.64 0v1.522c0 .59-.382 1.102-.932 1.256-1.016.29-1.999.71-2.922 1.257a1.226 1.226 0 01-1.516-.214L12.6 23.706a15.36 15.36 0 00-3.277 3.402l1.033 1.076c.398.42.482 1.06.203 1.573-.525.957-.94 1.974-1.211 3.034-.152.573-.644.966-1.211.966H6.671a16.199 16.199 0 000 4.803h1.465c.567 0 1.067.393 1.211.966.28 1.06.686 2.077 1.21 3.034a1.34 1.34 0 01-.202 1.572L9.322 45.21a15.36 15.36 0 003.277 3.402l1.041-1.077a1.228 1.228 0 011.516-.214c.923.547 1.906.975 2.922 1.257.55.154.931.666.931 1.256v1.522c1.525.247 3.117.247 4.64 0v-1.522c0-.59.382-1.102.932-1.256a11.94 11.94 0 002.922-1.257 1.224 1.224 0 011.516.206l1.041 1.076a15.359 15.359 0 003.278-3.401l-1.042-1.077a1.354 1.354 0 01-.203-1.573c.533-.957.94-1.974 1.21-3.034a1.257 1.257 0 011.212-.965h1.465c.118-.787.178-1.599.178-2.402a15.03 15.03 0 00-.178-2.393zM21.32 43.466c-3.887 0-7.046-3.282-7.046-7.308 0-4.025 3.16-7.307 7.046-7.307 3.887 0 7.046 3.282 7.046 7.307 0 4.026-3.159 7.308-7.046 7.308z" fill="#F27C34" stroke="#303030" stroke-width="2"/><path d="M15.236 64.097H27.1M15.236 7.448H27.1" stroke="#303030" stroke-width="2"/></svg>