<svg fill="none" xmlns="http://www.w3.org/2000/svg" viewBox="0 0 80 69"><path d="M49.128 13.447V7.749c0-3.955 3.268-7.01 7.149-6.731 1.702.138 3.268.902 4.357 2.15 1.09 1.18 1.77 2.846 1.77 4.581v4.6" stroke="#303030" stroke-width="2" stroke-miterlimit="10" stroke-linecap="round" stroke-linejoin="round"/><path d="M38.34 65.553L1 68.213V35.378l37.34-2.846v33.02z" fill="#fff"/><path d="M79 52.489L33.36 55.768V15.296L79 11.79v40.7z" fill="#FFC34A" stroke="#303030" stroke-width="2" stroke-miterlimit="10" stroke-linejoin="round"/><path d="M13.447 33.361v-4.937a5.816 5.816 0 016.256-5.835c1.489.12 2.86.782 3.812 1.865a5.892 5.892 0 011.55 3.97v3.986" stroke="#303030" stroke-width="2" stroke-miterlimit="10" stroke-linecap="round" stroke-linejoin="round"/><path d="M38.34 65.02L1 67.68V34.846L38.34 32v33.02z" stroke="#303030" stroke-width="2" stroke-miterlimit="10" stroke-linejoin="round"/></svg>