<svg fill="none" xmlns="http://www.w3.org/2000/svg" viewBox="0 0 52 63"><path d="M43.397 53.118S31.13 8.452 30.213 5.48c0 0-1.226-3.556-4.237-3.556-3.244 0-4.466 3.556-4.466 3.556-.914 2.972-13.184 47.713-13.184 47.713" fill="#fff"/><path d="M43.397 53.118S31.13 8.452 30.213 5.48c0 0-1.226-3.556-4.237-3.556-3.244 0-4.466 3.556-4.466 3.556-.914 2.972-13.184 47.713-13.184 47.713" stroke="#303030" stroke-width="2"/><path d="M32.636 14.326H19.082l-2.447 8.911H35.08l-2.444-8.911z" fill="#FFC24A" stroke="#303030" stroke-width="2"/><path d="M37.98 33.487l-24.11.001-2.606 10.53h29.192l-2.476-10.53z" fill="#FF8947" stroke="#303030" stroke-width="2"/><path d="M48.987 53.175S51 53.36 51 56.148V58.189c0 2.783-2.013 2.972-2.013 2.972H3.013S1 60.976 1 58.189V56.148c0-2.784 2.013-2.973 2.013-2.973h45.974z" fill="#fff" stroke="#303030" stroke-width="2"/></svg>