<svg fill="none" xmlns="http://www.w3.org/2000/svg" viewBox="0 0 50 72"><path d="M46.702 15.03L35.098 7.225 4.447 52.797l11.605 7.805 30.65-45.572z" fill="#fff" stroke="#303030" stroke-width="2" stroke-linejoin="round"/><path d="M2.583 69.778c-.756.536-1.765-.147-1.555-1.05l1.524-6.589 2.112-9.151 5.558 3.74 5.558 3.74L8.1 65.88l-5.517 3.898z" fill="#fff" stroke="#303030" stroke-width="2" stroke-linejoin="bevel"/><path d="M37.73 15.846L25.33 34.276M3.676 70.83c4.434.745 8.826-1.125 13.196-2.186a37.067 37.067 0 0113.817-.694" stroke="#303030" stroke-width="2"/><path d="M38.48 7.886l2.711-4.035C42.883 1.34 45.71.289 47.506 1.508c1.807 1.208 1.891 4.224.21 6.735l-2.71 4.034" fill="#FFC24A"/><path d="M38.48 7.886l2.711-4.035C42.883 1.34 45.71.289 47.506 1.508c1.807 1.208 1.891 4.224.21 6.735l-2.71 4.034" stroke="#303030" stroke-width="2"/></svg>