<svg fill="none" xmlns="http://www.w3.org/2000/svg" viewBox="0 0 57 61"><path d="M28.593 12.393s-3.417-.122-6.47.854c-5.559 1.777-10.13 9.154-9.034 15.867.78 4.773 8.543 19.775 8.543 19.775l6.84.029 6.84.029s7.763-15.002 8.542-19.775c1.097-6.713-3.475-14.09-9.033-15.867-3.053-.976-6.228-.912-6.228-.912z" fill="#FFC24A" stroke="#303030" stroke-width="2"/><path d="M46.391 35.515l7.688 3.573M48.198 23.094l8.167-2.13M41.173 12.358l5.397-6.776M28.723 8.329V0M10.98 35.342L3.29 38.914M9.167 22.92L1 20.79M16.198 12.185l-5.403-6.776" stroke="#303030" stroke-width="2"/><path d="M28.389 51.69l6.51.006s.122 3.295-.242 4.513c-.311 1.028-.53 1.974-1.985 2.17-.387.052-.999-.282-1.582.485-.577.762.277 1.986-1.374 2.136l-2.643-.017c-1.645-.15-.791-1.374-1.374-2.136-.583-.768-1.195-.433-1.582-.485-1.454-.196-1.68-1.137-1.985-2.17-.364-1.218-.242-4.514-.242-4.514l6.499.012z" fill="#303030"/></svg>