<svg fill="none" xmlns="http://www.w3.org/2000/svg" viewBox="0 0 77 72"><path d="M59.303 32.368h-2.078c-.807 0-1.511-.557-1.722-1.363a18.34 18.34 0 00-1.722-4.27 1.882 1.882 0 01.286-2.213l1.469-1.516a21.591 21.591 0 00-4.644-4.794l-1.47 1.516a1.742 1.742 0 01-2.147.295 17.205 17.205 0 00-4.143-1.773c-.778-.212-1.316-.943-1.316-1.774v-2.143a20.74 20.74 0 00-6.569 0v2.143c0 .827-.538 1.558-1.316 1.774a17.278 17.278 0 00-4.143 1.773 1.743 1.743 0 01-2.148-.295l-1.47-1.516a21.488 21.488 0 00-4.64 4.794L23 24.522c.567.585.683 1.495.285 2.213a18.4 18.4 0 00-1.717 4.27c-.211.806-.915 1.363-1.722 1.363h-2.078a22.444 22.444 0 000 6.77h2.082c.807 0 1.51.557 1.722 1.358.39 1.487.969 2.924 1.718 4.27a1.875 1.875 0 01-.286 2.214l-1.47 1.516a21.734 21.734 0 004.64 4.789l1.47-1.516a1.743 1.743 0 012.148-.295 17.204 17.204 0 004.143 1.774c.778.211 1.316.943 1.316 1.773v2.148a20.74 20.74 0 006.569 0V55.02c0-.83.538-1.557 1.316-1.773a17.204 17.204 0 004.143-1.774 1.737 1.737 0 012.148.295l1.47 1.52a21.484 21.484 0 004.639-4.793l-1.47-1.516a1.882 1.882 0 01-.285-2.214 18.34 18.34 0 001.722-4.27c.211-.801.915-1.358 1.722-1.358h2.078a22.486 22.486 0 000-6.77zM38.538 46.045c-5.505 0-9.984-4.618-9.984-10.292 0-5.674 4.479-10.293 9.984-10.293 5.5 0 9.978 4.62 9.978 10.293 0 5.674-4.478 10.292-9.978 10.292z" fill="#fff" stroke="#303030" stroke-width="2"/><path d="M9.19 12.111c1.162 6.418 8.024 7.988 11.501 5.163 0 0-3.96-2.435-4.413-6.138-.467-3.834 1.9-7.913 1.9-7.913-4.246-1.42-10.14 2.471-8.989 8.888z" fill="#FF8947" stroke="#303030" stroke-width="2"/><path d="M63.087 66.846c2.99 0 5.413-2.432 5.413-5.433 0-3-2.424-5.432-5.413-5.432-2.99 0-5.414 2.432-5.414 5.432 0 3 2.424 5.433 5.414 5.433z" fill="#FFC24A" stroke="#303030" stroke-width="2"/><path d="M62.867 52.044v2.388M62.867 68.607V71M72.345 61.517l-2.38.005M69.589 54.835l-1.685 1.69M69.617 68.2l-1.688-1.686M53.525 61.517l2.38.005M56.282 54.835l1.68 1.69M56.253 68.2l1.684-1.686M21.979 5.22A34.403 34.403 0 0138.538 1c19.125 0 34.63 15.56 34.63 34.753 0 4.797-.969 9.37-2.724 13.528" stroke="#303030" stroke-width="2"/><path d="M68.58 44.152l1.17 5.81 5.543-3.071M6.13 21.676a34.713 34.713 0 00-2.836 13.505c-.16 19.193 15.215 34.88 34.34 35.04 4.804.04 9.388-.903 13.563-2.642" stroke="#303030" stroke-width="2"/><path d="M7.946 26.827l-1.11-5.822-5.573 3.014" stroke="#303030" stroke-width="2"/></svg>