<svg fill="none" xmlns="http://www.w3.org/2000/svg" viewBox="0 0 79 43"><path d="M34.693 37.814c0 2.366 1.847 4.185 4.185 4.185 2.339 0 4.185-1.82 4.185-4.185 0-2.365-1.846-4.185-4.185-4.185-2.338 0-4.185 1.82-4.185 4.185z" fill="#FFC24A" stroke="#303030" stroke-width="2"/><path d="M39.223 2.242c7.702 0 12.21 4.355 12.21 11.235 0 4.733-3.444 7.952-6.387 10.982-2.191 2.272-2.63 3.66-2.63 4.986H36.28c.188-3.472 1.064-5.113 3.82-8.142 2.128-2.399 4.946-4.418 4.946-7.763 0-3.22-2.191-5.491-5.823-5.491-3.883 0-5.886 2.777-6.137 6.438h-6.763c.752-7.196 5.761-12.245 12.9-12.245z" fill="#FF8947" stroke="#303030" stroke-width="2"/><path d="M58 1l19 20.5L58 42M21 1L2 21.5 21 42" stroke="#303030" stroke-width="2"/></svg>