<svg fill="none" xmlns="http://www.w3.org/2000/svg" viewBox="0 0 57 72"><path d="M30.354 8.868V17.9H24.71V8.868" fill="#fff"/><path d="M30.354 8.868V17.9H24.71V8.868" stroke="#303030" stroke-width="2"/><path d="M28.097 71c14.965 0 27.096-12.132 27.096-27.097 0-14.965-12.131-27.096-27.096-27.096S1 28.938 1 43.903 13.132 71 28.097 71z" fill="#fff" stroke="#303030" stroke-width="2"/><path d="M28.096 60.838c9.353 0 16.935-7.582 16.935-16.935 0-9.353-7.582-16.936-16.935-16.936-9.354 0-16.936 7.583-16.936 16.936s7.582 16.935 16.936 16.935z" fill="#FDC259" stroke="#303030" stroke-width="2"/><path d="M19.013 1H36.05c.593 0 1.078.586 1.078 1.304v6.424c0 .718-.485 1.304-1.078 1.304H19.013c-.594 0-1.078-.586-1.078-1.304V2.304c0-.718.484-1.304 1.078-1.304z" fill="#F27C34" stroke="#303030" stroke-width="2"/><path d="M48.842 18.643a1 1 0 011.414 0l2.577 2.578a1 1 0 010 1.414l-3.809 3.809-3.991-3.992 3.809-3.809z" fill="#303030"/></svg>