<svg width="65" height="54" viewBox="0 0 65 54" fill="none" xmlns="http://www.w3.org/2000/svg">
<path d="M49.7555 29.1858C53.6241 29.1858 57.1167 27.6075 59.6723 25.0408C62.2061 22.4961 63.7766 18.9885 63.7777 15.1044C63.7777 11.1973 62.2061 7.68391 59.6723 5.14497C57.1167 2.57717 53.6252 1 49.7555 1C47.3412 1 45.0868 1.60962 43.1163 2.67069C42.7875 2.85658 42.4599 3.04362 42.1587 3.25837C41.4309 3.7306 40.786 4.20629 40.1169 4.85748C39.4478 5.50867 37.7245 7.68391 37.068 9.07403L36.1322 11.0749L34.3974 9.68943C33.3857 8.88699 32.2361 8.27737 30.9715 7.87557C29.9414 7.5188 28.8147 7.33176 27.6432 7.33176C25.6728 7.3537 23.8448 7.87557 22.2687 8.79347C21.8467 9.029 21.426 9.28763 21.0535 9.59013C19.3405 10.8867 18.0483 12.7006 17.37 14.7511C17.2987 14.9382 17.2275 15.1033 17.1838 15.2903L16.3629 18.2368C14.4526 14.7511 11.552 13.6901 8.71666 13.6901C6.58177 13.6901 4.66071 14.5364 3.2547 15.9496C1.87052 17.3628 1.00024 19.2968 1.00024 21.4408C1.00024 23.5837 1.87052 25.5142 3.2547 26.9043C4.66071 28.3175 6.58177 29.1858 8.71666 29.1858H49.7555Z" fill="white" stroke="#303030" stroke-width="2"/>
<path d="M55.4229 46.3926L55.4229 46.3926C54.2973 46.8223 52.9345 46.9163 51.2686 46.694L51.2679 46.6939C49.8616 46.5051 47.2487 45.5761 44.4304 44.0866C41.5868 42.5839 38.415 40.4485 35.9229 37.7609L35.9228 37.7608C33.9375 35.6192 31.8279 32.6568 30.3185 29.7217C29.5631 28.2528 28.9452 26.766 28.5726 25.3727C28.2039 23.994 28.053 22.6244 28.3197 21.4311L29.2915 21.6483L28.3197 21.4311C28.3811 21.1563 28.4623 20.8118 28.6044 20.4636L28.605 20.4622C29.7824 17.5902 33.2373 16.4945 36.1812 17.7066L36.182 17.7069C37.0301 18.057 37.7662 18.5622 38.3613 19.1778C39.8454 20.7097 40.478 22.9523 39.6397 24.9995L39.6397 24.9997C39.1149 26.2804 38.1191 27.2156 36.9267 27.743C37.6474 29.7834 38.9727 31.9866 40.8501 34.0109L40.8503 34.0111C42.9576 36.2849 45.3356 37.8776 47.5125 38.6861C48.8054 36.0491 52.1128 35.0766 54.947 36.243C55.1755 36.3367 55.3956 36.4421 55.6101 36.5617C58.1326 37.9434 59.4904 40.8903 58.4066 43.5364L58.4066 43.5365C57.8707 44.8447 56.848 45.8485 55.4229 46.3926Z" fill="#FFC24A" stroke="#303030" stroke-width="2"/>
</svg>
