<svg fill="none" xmlns="http://www.w3.org/2000/svg" viewBox="0 0 56 55"><path d="M45.007 39.427L16.775 11.194s1.463-5.07-1.139-7.586c-2.144-2.074-7.1-1.658-8.017-1.065l3.736 3.32-.35 3.983-.026.026-4.17.537-3.32-3.736c-.594.918-1.01 5.873 1.064 8.018 2.517 2.601 7.587 1.138 7.587 1.138l28.232 28.233s-1.462 5.07 1.139 7.586c2.144 2.074 7.1 1.658 8.017 1.065l-3.736-3.32.35-3.983.026-.025 4.17-.538 3.32 3.736c.594-.918 1.01-5.873-1.064-8.018-2.52-2.605-7.587-1.138-7.587-1.138z" fill="#FDC259" stroke="#303030" stroke-width="2"/><path d="M19.106 35.738l3.881 3.895L10.728 51.94c-1.199 1.204-2.79 1.969-4.48 2.052-1.274.063-2.698-.242-3.893-1.438-1.191-1.195-1.408-2.541-1.345-3.82.083-1.702.845-3.294 2.044-4.498l12.259-12.307 3.88 3.896-.087-.087z" stroke="#303030" stroke-width="2"/><path d="M18.906 35.542L40.96 13.403l-.854-4.844L48.342 2l1.986 1.998 2.27 2.278-6.389 8.122-5.113-.936" stroke="#303030" stroke-width="2"/></svg>