<svg fill="none" xmlns="http://www.w3.org/2000/svg" viewBox="0 0 62 56"><path d="M.009 27.731s8.376-7.384 15.748-.123c0 0 7.773-7.26 15.15 0 0 0 7.773-7.26 15.15 0 0 0 8.566-7.007 15.943.253C61.522 18.306 52.034.885 30.907.885 8.982.885-.33 18.851.01 27.731z" fill="#FFC24A"/><path d="M15.757 27.608C8.385 20.348.009 27.73.009 27.73-.331 18.851 8.982.885 30.907.885v26.723c-7.377-7.26-15.15 0-15.15 0z" fill="#FF8947"/><path d="M30.643 24.786l-.133 17.188c0 3.134 0 12.224-6.926 12.224-7.45 0-7.294-9.157-7.294-9.157" stroke="#303030" stroke-width="2"/><mask id="a" fill="#fff"><path fill-rule="evenodd" clip-rule="evenodd" d="M15.703 27.555l.054.053s7.773-7.26 15.15 0c0 0 7.774-7.26 15.15 0 0 0 .191-.156.54-.397.068-.778.103-1.567.103-2.364C46.7 14.053 40.277 4.8 31.14.887h-.013c-9.138 3.912-15.56 13.167-15.56 23.96 0 .914.046 1.818.136 2.708z"/></mask><path fill-rule="evenodd" clip-rule="evenodd" d="M15.703 27.555l.054.053s7.773-7.26 15.15 0c0 0 7.774-7.26 15.15 0 0 0 .191-.156.54-.397.068-.778.103-1.567.103-2.364C46.7 14.053 40.277 4.8 31.14.887h-.013c-9.138 3.912-15.56 13.167-15.56 23.96 0 .914.046 1.818.136 2.708z" fill="#fff"/><path d="M15.703 27.555l-1.99.2.073.724.52.508 1.397-1.432zm.054.053l-1.404 1.424 1.367 1.347 1.402-1.31-1.365-1.461zm15.15 0l-1.403 1.425 1.367 1.345 1.402-1.309-1.366-1.461zm15.15 0l-1.402 1.425 1.28 1.26 1.39-1.137-1.267-1.548zm.54-.397l1.137 1.645.772-.534.083-.935-1.993-.176zM31.138.886l.788-1.838-.372-.16-.404-.002-.012 2zm-.012 0l.012-2-.416-.002-.383.164.787 1.838zm-16.82 28.1l.046.046 2.807-2.85-.061-.06-2.792 2.865zm1.45-1.378c1.365 1.461 1.364 1.462 1.364 1.462l-.002.002-.001.001-.002.002.005-.005a5.09 5.09 0 01.245-.208c.187-.152.47-.37.836-.615.738-.496 1.767-1.075 2.967-1.455 2.298-.728 5.27-.775 8.335 2.241l2.806-2.85c-4.313-4.245-8.915-4.292-12.348-3.205-1.666.528-3.04 1.31-3.991 1.949a15.596 15.596 0 00-1.442 1.096 8.061 8.061 0 00-.12.107l-.01.01a.83.83 0 01-.004.003l-.002.002s-.001.001 1.364 1.463zm15.15 0c1.366 1.461 1.365 1.462 1.364 1.462l-.001.002-.002.001a.039.039 0 00-.001.002l.005-.005c.007-.006.02-.019.042-.037a11.598 11.598 0 011.04-.786c.736-.496 1.766-1.075 2.966-1.455 2.297-.728 5.27-.775 8.335 2.241l2.806-2.85c-4.313-4.245-8.915-4.292-12.349-3.205-1.665.528-3.04 1.31-3.99 1.949a15.596 15.596 0 00-1.443 1.096l-.091.081-.029.026-.01.01-.004.003-.001.002c-.001 0-.002.001 1.363 1.463zm15.15 0l1.267 1.548h-.001l-.002.002a.039.039 0 01-.002.002l.012-.01.073-.056a9.47 9.47 0 01.33-.238l-2.276-3.29a13.37 13.37 0 00-.644.475l-.014.011-.005.004-.002.002-.001.001 1.266 1.549zm2.532-.221c.073-.837.11-1.684.11-2.54h-4c0 .738-.032 1.468-.095 2.189l3.985.35zm.11-2.54c0-11.599-6.903-21.574-16.772-25.8l-1.575 3.678C38.76 6.325 44.7 14.859 44.7 24.847h4zM31.153-1.113h-.013l-.023 4h.011l.024-4zm-.812.16c-9.87 4.226-16.773 14.201-16.773 25.8h4c0-9.988 5.94-18.523 14.347-22.122L30.34-.952zm-16.773 25.8c0 .982.05 1.952.146 2.909l3.98-.402a24.92 24.92 0 01-.126-2.507h-4z" fill="#303030" mask="url(#a)"/><path d="M1.088 25.726c.446-4.05 2.6-9.437 6.765-14.08 4.85-5.404 12.394-9.76 23.054-9.76 10.259 0 17.652 4.218 22.552 9.579 4.111 4.498 6.455 9.787 7.25 14.045-3.42-2.3-6.94-2.226-9.712-1.462a16.629 16.629 0 00-3.995 1.718c-.34.2-.63.388-.866.548-3.81-3.356-7.736-3.328-10.722-2.382-1.55.49-2.838 1.222-3.735 1.825-.282.19-.527.367-.732.523-3.797-3.322-7.707-3.291-10.684-2.348-1.549.49-2.837 1.222-3.735 1.825-.282.19-.527.368-.732.524-3.822-3.33-7.88-3.252-10.975-2.29a16.285 16.285 0 00-3.733 1.735z" stroke="#303030" stroke-width="2"/></svg>