<svg width="182" height="52" viewBox="0 0 182 52" fill="none" xmlns="http://www.w3.org/2000/svg">
<path d="M39.099 9.86599C39.0582 9.62137 38.8544 9.45829 38.6505 9.45829C38.4467 9.45829 34.5735 9.17289 34.5735 9.17289C34.5735 9.17289 31.8826 6.48204 31.5564 6.19664C31.271 5.91125 30.6595 5.99279 30.4556 6.07433C30.4149 6.07433 29.8441 6.23741 28.9471 6.52281C28.0502 3.91349 26.4601 1.50802 23.6469 1.50802C23.5654 1.50802 23.4839 1.50802 23.4023 1.50802C22.5869 0.447988 21.6084 -0.000488281 20.7522 -0.000488281C14.1882 -0.000488281 11.0488 8.1944 10.0703 12.353C7.54256 13.1276 5.70788 13.6984 5.50403 13.78C4.07706 14.2284 4.03629 14.2692 3.87321 15.6146C3.71012 16.5931 0 45.3364 0 45.3364L28.9471 50.7589L44.6438 47.3749C44.6438 47.3749 39.1398 10.1514 39.099 9.86599ZM27.3163 7.01205C26.5824 7.25668 25.767 7.5013 24.8701 7.78669C24.8701 7.62361 24.8701 7.46053 24.8701 7.25668C24.8701 5.62585 24.6254 4.32119 24.2993 3.30193C25.767 3.46501 26.7047 5.09584 27.3163 7.01205ZM22.5054 3.58732C22.9131 4.60659 23.1577 6.03356 23.1577 7.99055C23.1577 8.07209 23.1577 8.1944 23.1577 8.27594C21.5676 8.76519 19.8145 9.29521 18.1021 9.82522C19.0806 6.1151 20.9153 4.28042 22.5054 3.58732ZM20.5484 1.75265C20.8338 1.75265 21.1192 1.83419 21.4046 2.03804C19.3253 3.01654 17.0421 5.50354 16.1044 10.4776C14.7182 10.926 13.3728 11.3337 12.1089 11.7007C13.2097 7.90901 15.8598 1.75265 20.5484 1.75265Z" fill="#95BF47"/>
<path d="M38.6507 9.45915C38.4468 9.45915 34.5736 9.17376 34.5736 9.17376C34.5736 9.17376 31.8827 6.4829 31.5566 6.19751C31.4343 6.07519 31.312 6.03442 31.1489 5.99365L28.9473 50.7598L44.6439 47.3758C44.6439 47.3758 39.1399 10.1523 39.0991 9.90763C39.0584 9.62223 38.8138 9.49992 38.6507 9.45915Z" fill="#5E8E3E"/>
<path d="M23.6066 18.1428L21.6904 23.8915C21.6904 23.8915 19.978 22.9945 17.9395 22.9945C14.8817 22.9945 14.7594 24.9107 14.7594 25.4C14.7594 28.0093 21.6088 29.0286 21.6088 35.1849C21.6088 40.0366 18.551 43.1352 14.3924 43.1352C9.4184 43.1352 6.89062 40.0366 6.89062 40.0366L8.23606 35.6334C8.23606 35.6334 10.8454 37.8758 13.047 37.8758C14.474 37.8758 15.0855 36.7342 15.0855 35.9188C15.0855 32.4941 9.45917 32.331 9.45917 26.7046C9.45917 21.9752 12.8431 17.3682 19.7334 17.3682C22.3019 17.3682 23.6066 18.1428 23.6066 18.1428Z" fill="white"/>
<path d="M62.9092 28.9068C61.3599 28.0506 60.5445 27.3575 60.5445 26.379C60.5445 25.1151 61.6453 24.3405 63.3984 24.3405C65.437 24.3405 67.2309 25.1967 67.2309 25.1967L68.6578 20.8342C68.6578 20.8342 67.3532 19.8149 63.48 19.8149C58.0982 19.8149 54.3474 22.9135 54.3474 27.2352C54.3474 29.6814 56.1005 31.5569 58.4244 32.9023C60.2999 33.9623 60.9522 34.737 60.9522 35.8378C60.9522 37.0201 60.0145 37.9579 58.2613 37.9579C55.652 37.9579 53.2058 36.6124 53.2058 36.6124L51.6973 40.9749C51.6973 40.9749 53.9804 42.4834 57.7721 42.4834C63.3169 42.4834 67.2716 39.7518 67.2716 34.8593C67.3532 32.1684 65.3146 30.293 62.9092 28.9068Z" fill="black"/>
<path d="M85.007 19.732C82.2753 19.732 80.1553 21.0366 78.4837 22.9936L78.4021 22.9529L80.7668 10.5586H74.6105L68.6172 42.0743H74.7735L76.8121 31.3108C77.6275 27.2338 79.7068 24.7468 81.6638 24.7468C83.05 24.7468 83.58 25.6845 83.58 27.0299C83.58 27.8861 83.4985 28.9054 83.2946 29.7615L80.9707 42.115H87.127L89.5325 29.3946C89.8179 28.0492 89.981 26.4591 89.981 25.3583C90.0217 21.8113 88.1871 19.732 85.007 19.732Z" fill="black"/>
<path d="M103.965 19.7271C96.5446 19.7271 91.6113 26.4134 91.6113 33.8744C91.6113 38.6446 94.5468 42.5178 100.092 42.5178C107.39 42.5178 112.282 35.9945 112.282 28.3704C112.323 23.9264 109.754 19.7271 103.965 19.7271ZM100.948 37.7477C98.8277 37.7477 97.9715 35.9537 97.9715 33.7114C97.9715 30.1643 99.8062 24.4157 103.149 24.4157C105.351 24.4157 106.044 26.2911 106.044 28.1258C106.044 31.9582 104.209 37.7477 100.948 37.7477Z" fill="black"/>
<path d="M128.101 19.7271C123.943 19.7271 121.578 23.3964 121.578 23.3964H121.497L121.864 20.094H116.4C116.115 22.3364 115.626 25.7203 115.136 28.2889L110.855 50.8758H117.012L118.724 41.7432H118.847C118.847 41.7432 120.11 42.5586 122.475 42.5586C129.732 42.5586 134.462 35.1383 134.462 27.6365C134.462 23.4372 132.627 19.7271 128.101 19.7271ZM122.23 37.87C120.64 37.87 119.703 36.973 119.703 36.973L120.722 31.2244C121.456 27.3919 123.454 24.8234 125.574 24.8234C127.449 24.8234 128.02 26.5765 128.02 28.2073C128.02 32.1621 125.655 37.87 122.23 37.87Z" fill="black"/>
<path d="M143.268 10.8472C141.311 10.8472 139.721 12.3965 139.721 14.435C139.721 16.2697 140.862 17.5335 142.615 17.5335H142.697C144.613 17.5335 146.285 16.2289 146.326 13.9457C146.366 12.1518 145.143 10.8472 143.268 10.8472Z" fill="black"/>
<path d="M134.625 42.0752H140.822L145.022 20.2222H138.784L134.625 42.0752Z" fill="black"/>
<path d="M160.676 20.1448H156.396L156.599 19.1255C156.966 17.0055 158.189 15.13 160.269 15.13C161.37 15.13 162.226 15.4562 162.226 15.4562L163.449 10.6453C163.449 10.6453 162.389 10.1152 160.106 10.1152C157.904 10.1152 155.743 10.7268 154.072 12.1538C151.952 13.9477 150.973 16.5162 150.484 19.1255L150.321 20.1448H147.467L146.57 24.7926H149.424L146.162 42.0386H152.318L155.58 24.7926H159.82L160.676 20.1448Z" fill="black"/>
<path d="M175.518 20.2222C175.518 20.2222 171.644 29.9256 169.932 35.2257H169.851C169.728 33.5134 168.342 20.2222 168.342 20.2222H161.86L165.57 40.2813C165.651 40.7298 165.61 41.0152 165.447 41.3006C164.713 42.6868 163.531 44.0322 162.104 45.0107C160.963 45.8669 159.658 46.3969 158.639 46.7638L160.351 51.9825C161.615 51.6971 164.183 50.6778 166.385 48.6393C169.198 45.9892 171.808 41.9529 174.458 36.4081L182 20.2222H175.518Z" fill="black"/>
</svg>
