<svg width="65" height="92" viewBox="0 0 65 92" fill="none" xmlns="http://www.w3.org/2000/svg">
<path d="M17.1485 79.3821V76.9044H13.7246V90.9358H16.0339C16.6492 90.9358 17.1485 90.4365 17.1485 89.8211V84.3096C17.1485 81.6368 18.0112 79.771 20.1834 79.771H22.3826V76.9033H20.7397C18.9308 76.9044 17.8451 77.5999 17.1485 79.3821Z" fill="#001B38"/>
<path d="M30.3181 76.6948C26.0305 76.6948 22.9688 79.7577 22.9688 83.9329C22.9688 88.108 26.0316 91.1709 30.3181 91.1709C34.5781 91.1709 37.6398 88.108 37.6398 83.9329C37.6398 79.7577 34.5781 76.6948 30.3181 76.6948ZM30.3181 88.2206C27.9798 88.2206 26.4205 86.4663 26.4205 83.9329C26.4205 81.3995 27.9798 79.6452 30.3181 79.6452C32.6287 79.6452 34.188 81.3995 34.188 83.9329C34.188 86.4663 32.6287 88.2206 30.3181 88.2206Z" fill="#001B38"/>
<path d="M47.5219 76.6948C45.5179 76.6948 43.9308 77.5576 43.1506 79.089V76.9178H39.7266V90.9491H42.0361C42.6513 90.9491 43.1506 90.4498 43.1506 89.8346V83.2931C43.1506 81.2334 44.4869 79.7298 46.4074 79.7298C48.1617 79.7298 49.3309 81.0662 49.3309 82.9877V90.9502H51.6403C52.2555 90.9502 52.7548 90.4509 52.7548 89.8357V82.2633C52.7559 78.9775 50.6952 76.6948 47.5219 76.6948Z" fill="#001B38"/>
<path d="M64.0604 78.6532V76.8999H60.1627V72.668H56.7388V75.9804C56.7388 76.648 56.4044 76.8988 55.8482 76.8988H53.9824V79.7667H56.7388V86.0305C56.7388 89.1491 58.7439 90.9302 61.8056 90.9302H64.0604V87.8395H62.1946C60.9139 87.8395 60.1617 87.1161 60.1617 85.6961V79.7667H62.9448C63.5611 79.7678 64.0604 79.2685 64.0604 78.6532Z" fill="#001B38"/>
<path d="M0 74.9823V90.9352H2.56022C3.17546 90.9352 3.67476 90.4359 3.67476 89.8206V82.7499H11.1356V79.5755H3.67476V75.5942C3.67476 75.0559 4.1105 74.6201 4.64886 74.6201H11.859C12.4743 74.6201 12.9736 74.1208 12.9736 73.5056V71.4458H3.53543C1.58378 71.4469 0 73.0296 0 74.9823Z" fill="#001B38"/>
<path d="M13.6738 10.2498C13.6738 4.58899 18.2628 0 23.9236 0H56.7918V14.5862C56.7918 17.4166 54.4973 19.7111 51.6669 19.7111H38.3127C35.5912 19.7111 33.3849 21.9174 33.3849 24.6389V56.4723C33.3849 59.3027 31.0904 61.5972 28.26 61.5972H13.6738V10.2498Z" fill="#001B38"/>
<path d="M25.1322 24.7615C25.1322 32.1097 31.0891 38.0665 38.4372 38.0665C45.7853 38.0665 51.7422 32.1097 51.7422 24.7615C51.7422 17.4134 45.7853 11.4565 38.4372 11.4565C31.0891 11.4565 25.1322 17.4134 25.1322 24.7615Z" fill="url(#paint0_linear)"/>
<path opacity="0.5" d="M25.1322 24.7615C25.1322 32.1097 31.0891 38.0665 38.4372 38.0665C45.7853 38.0665 51.7422 32.1097 51.7422 24.7615C51.7422 17.4134 45.7853 11.4565 38.4372 11.4565C31.0891 11.4565 25.1322 17.4134 25.1322 24.7615Z" fill="url(#paint1_linear)"/>
<defs>
<linearGradient id="paint0_linear" x1="29.0671" y1="14.7878" x2="49.0752" y2="34.9342" gradientUnits="userSpaceOnUse">
<stop stop-color="#FF0057" stop-opacity="0.16"/>
<stop offset="0.861354" stop-color="#FF0057"/>
</linearGradient>
<linearGradient id="paint1_linear" x1="29.0671" y1="14.7878" x2="49.0752" y2="34.9342" gradientUnits="userSpaceOnUse">
<stop stop-color="#FF0057" stop-opacity="0.16"/>
<stop offset="0.861354" stop-color="#FF0057"/>
</linearGradient>
</defs>
</svg>
