<svg width="60" height="60" viewBox="0 0 60 60" fill="none" xmlns="http://www.w3.org/2000/svg">
<path d="M59.8901 29.9446C59.8901 13.4046 46.485 -0.000488281 29.945 -0.000488281C13.4051 -0.000488281 0 13.4046 0 29.9446C0 44.8937 10.9487 57.2811 25.2661 59.527V38.6005H17.6629V29.9446H25.2661V23.3473C25.2661 15.8435 29.7345 11.6968 36.5774 11.6968C39.8526 11.6968 43.2799 12.2817 43.2799 12.2817V19.6509H39.5017C35.782 19.6509 34.624 21.9612 34.624 24.3299V29.9446H42.929L41.6014 38.6005H34.624V59.527C48.9414 57.2811 59.8901 44.8937 59.8901 29.9446Z" fill="#1877F2"/>
<path d="M41.6006 38.6035L42.9282 29.9475H34.6232V24.3328C34.6232 21.9641 35.7812 19.6539 39.5009 19.6539H43.2792V12.2846C43.2792 12.2846 39.8519 11.6997 36.5766 11.6997C29.7337 11.6997 25.2653 15.8464 25.2653 23.3502V29.9475H17.6621V38.6035H25.2653V59.5299C26.7918 59.7697 28.3534 59.8925 29.9443 59.8925C31.5351 59.8925 33.0967 59.7697 34.6232 59.5299V38.6035H41.6006Z" fill="white"/>
</svg>
