<svg width="226" height="44" viewBox="0 0 226 44" fill="none" xmlns="http://www.w3.org/2000/svg">
<path d="M63.668 11.4131H73.2635C78.5786 11.4131 81.3381 13.6045 81.3381 17.7193V17.9243C81.4139 19.1301 81.0567 20.3232 80.3316 21.2866C79.6065 22.2501 78.5617 22.9198 77.387 23.1742C78.7937 23.2987 80.0948 23.9761 81.0078 25.0594C81.9207 26.1427 82.3718 27.5444 82.2632 28.9602V29.102C82.2632 33.5952 79.3312 35.9601 73.7025 35.9601H63.668V11.4131ZM72.3698 21.4873C75.0352 21.4873 76.0857 20.5256 76.0857 18.3342V18.1923C76.0857 16.1428 74.9254 15.2126 72.3384 15.2126H69.0615V21.5188L72.3698 21.4873ZM72.8401 32.0975C75.5683 32.0975 76.8069 30.852 76.8069 28.6291V28.4872C76.8069 26.2169 75.5683 25.0661 72.5736 25.0661H69.0615V32.1133L72.8401 32.0975ZM83.7056 30.9624C83.7056 26.7687 87.5156 25.1922 92.9876 25.1922H94.9945V24.4827C94.9945 22.3544 94.3516 21.1877 92.0939 21.1877C91.7284 21.1441 91.3579 21.1761 91.0052 21.2819C90.6526 21.3877 90.3251 21.5649 90.0431 21.8027C89.7611 22.0404 89.5305 22.3337 89.3655 22.6645C89.2004 22.9953 89.1045 23.3565 89.0835 23.726H84.3798C84.6934 19.4693 88.033 17.5774 92.4074 17.5774C96.7819 17.5774 99.8706 19.3589 99.8706 24.2305V35.9285H95.0572V33.7686C94.4531 34.6245 93.6387 35.3082 92.6933 35.7531C91.748 36.198 90.7042 36.3888 89.6636 36.3069C86.4338 36.3069 83.7056 34.7303 83.7056 30.9624ZM94.9945 29.6538V28.0773H93.0816C90.2124 28.0773 88.5504 28.7079 88.5504 30.6155C88.5504 31.9241 89.3344 32.7754 91.1374 32.7754C93.3168 32.8385 94.9945 31.6403 94.9945 29.6538ZM101.956 30.3002H106.566C106.769 31.8768 107.553 32.8385 109.701 32.8385C111.614 32.8385 112.508 32.129 112.508 30.8836C112.508 29.6381 111.442 29.1336 108.886 28.771C104.182 28.0457 102.301 26.6741 102.301 23.1742C102.301 19.6742 105.719 17.5774 109.356 17.5774C113.323 17.5774 116.286 19.0279 116.725 23.1427H112.194C111.928 21.6607 111.097 20.9828 109.403 20.9828C107.71 20.9828 106.879 21.7395 106.879 22.8274C106.879 23.9152 107.726 24.4039 110.313 24.7823C114.781 25.4287 117.243 26.5638 117.243 30.4106C117.243 34.2574 114.452 36.3069 109.733 36.3069C105.013 36.3069 102.128 34.1786 101.956 30.3002ZM118.513 27.1786V26.9106C118.453 25.6785 118.649 24.4475 119.088 23.2954C119.526 22.1433 120.198 21.0954 121.06 20.218C121.922 19.3406 122.956 18.6528 124.097 18.1983C125.237 17.7437 126.459 17.5323 127.685 17.5774C132.295 17.5774 136.387 20.2891 136.387 26.7057V28.0773H123.577C123.703 31.057 125.318 32.8069 127.999 32.8069C130.288 32.8069 131.417 31.8137 131.73 30.3002H136.434C135.854 34.1786 132.781 36.3384 127.905 36.3384C122.433 36.3069 118.513 32.9173 118.513 27.1786ZM131.573 25.0188C131.417 22.3071 130.037 21.0774 127.685 21.0774C126.626 21.0723 125.607 21.4802 124.841 22.2152C124.075 22.9501 123.622 23.9551 123.577 25.0188H131.573ZM137.688 27.1786V26.9106C137.628 25.6758 137.825 24.442 138.265 23.2877C138.706 22.1334 139.38 21.0839 140.246 20.206C141.112 19.3281 142.149 18.641 143.294 18.1885C144.438 17.7359 145.663 17.5278 146.892 17.5774C151.031 17.5774 154.841 19.3905 155.296 24.5458H150.592C150.561 24.1033 150.441 23.6716 150.241 23.2765C150.04 22.8813 149.763 22.5306 149.425 22.2453C149.087 21.96 148.696 21.7459 148.274 21.6157C147.852 21.4855 147.409 21.4418 146.97 21.4873C144.414 21.4873 142.705 23.4107 142.705 26.8476V27.1156C142.705 30.7259 144.273 32.5705 147.08 32.5705C147.557 32.5981 148.036 32.5299 148.487 32.3699C148.938 32.2099 149.353 31.9612 149.707 31.6384C150.062 31.3157 150.349 30.9252 150.552 30.4897C150.755 30.0543 150.87 29.5826 150.89 29.102H155.358C155.092 33.3587 152.019 36.3069 146.829 36.3069C141.639 36.3069 137.688 33.0434 137.688 27.1786ZM156.503 30.9624C156.503 26.7687 160.313 25.1922 165.769 25.1922H167.792V24.4827C167.792 22.3544 167.133 21.1877 164.891 21.1877C164.523 21.1394 164.149 21.168 163.793 21.2716C163.437 21.3752 163.105 21.5517 162.82 21.7899C162.534 22.0281 162.301 22.3231 162.134 22.6562C161.967 22.9893 161.87 23.3535 161.849 23.726H157.146C157.459 19.4693 160.799 17.5774 165.158 17.5774C169.516 17.5774 172.636 19.3589 172.636 24.2305V35.9285H167.823V33.7686C167.219 34.6245 166.405 35.3082 165.459 35.7531C164.514 36.198 163.47 36.3888 162.43 36.3069C159.294 36.3069 156.503 34.7303 156.503 30.9624ZM167.792 29.6538V28.0773H165.91C163.041 28.0773 161.363 28.7079 161.363 30.6155C161.363 31.9241 162.163 32.7754 163.966 32.7754C166.177 32.8385 167.854 31.6403 167.854 29.6538H167.792ZM176.117 17.9243H181.056V20.6675C181.595 19.6928 182.387 18.8842 183.349 18.3287C184.31 17.7731 185.404 17.4916 186.512 17.5144C187.57 17.4293 188.627 17.6903 189.526 18.2585C190.424 18.8267 191.116 19.6717 191.498 20.6675C192.157 19.6785 193.052 18.8716 194.101 18.3208C195.15 17.7699 196.32 17.4926 197.503 17.5144C200.812 17.5144 203.367 19.6112 203.367 24.3724V35.8655H198.46V24.9872C198.46 22.6855 197.441 21.6607 195.653 21.6607C195.178 21.6399 194.703 21.7225 194.262 21.9029C193.822 22.0832 193.425 22.3571 193.099 22.7058C192.773 23.0545 192.526 23.4698 192.374 23.9234C192.222 24.377 192.169 24.8582 192.219 25.3341V35.9285H187.296V24.9872C187.296 22.6855 186.246 21.6607 184.505 21.6607C184.029 21.6376 183.553 21.7184 183.11 21.8977C182.667 22.0771 182.268 22.3506 181.94 22.6996C181.613 23.0486 181.364 23.4647 181.211 23.9195C181.059 24.3742 181.006 24.8568 181.056 25.3341V35.9285H176.117V17.9243ZM206.754 17.9243H211.708V20.7463C212.299 19.7592 213.133 18.9427 214.131 18.3764C215.128 17.81 216.254 17.513 217.4 17.5144C221.774 17.5144 225.239 20.7778 225.239 26.7057V26.9895C225.239 32.9173 221.9 36.2438 217.4 36.2438C216.255 36.2911 215.12 36.0221 214.116 35.4663C213.113 34.9104 212.28 34.0888 211.708 33.0907V42.0456H206.754V17.9243ZM220.159 27.021V26.7372C220.159 23.1111 218.388 21.3296 215.895 21.3296C213.402 21.3296 211.536 23.1427 211.536 26.7372V27.021C211.536 30.6155 213.245 32.3655 215.942 32.3655C218.638 32.3655 220.159 30.5367 220.159 27.0841V27.021Z" fill="#1D2D35"/>
<path fill-rule="evenodd" clip-rule="evenodd" d="M41.4767 13.8621C37.6481 7.33563 32.2027 2.91278 24.917 3.70875C18.9331 4.36249 14.1163 8.02328 10.4689 12.5656C6.82164 17.1078 4.49271 22.3559 3.48201 25.7504C3.19753 26.7058 2.20461 27.246 1.26425 26.957C0.323895 26.668 -0.2078 25.6591 0.0766775 24.7037C1.20062 20.9289 3.72802 15.2423 7.71216 10.2806C11.6961 5.31907 17.2857 0.906862 24.5366 0.11469C33.7944 -0.896726 40.3564 4.89217 44.5328 12.0114C48.7061 19.1256 50.7741 27.9639 51.0523 34.1819C51.067 34.51 50.9934 34.836 50.8394 35.1247C49.3679 37.8852 46.1411 39.9138 42.4823 41.2959C38.7378 42.7104 34.1763 43.5864 29.5424 43.7966C24.9095 44.0069 20.1124 43.5559 15.908 42.2446C11.7201 40.9385 7.95586 38.7241 5.64618 35.2821C5.35204 34.8438 5.26231 34.2962 5.40078 33.7847C6.40921 30.0592 7.75812 26.7182 9.27982 24.2642C10.0391 23.0397 10.8821 21.9696 11.8032 21.1868C12.7158 20.4112 13.8415 19.8055 15.1209 19.8055C16.398 19.8055 17.5446 20.4459 18.4076 21.0407C19.1947 21.5832 19.9986 22.2736 20.7194 22.8927C20.8189 22.9782 20.9169 23.0624 21.0131 23.1446C21.8564 23.8659 22.5826 24.461 23.2481 24.854C23.9285 25.2558 24.2737 25.28 24.4152 25.2556C24.4081 25.2568 24.4095 25.2561 24.4193 25.2508C24.4675 25.2251 24.7181 25.0914 25.1485 24.5537C25.6246 23.959 26.1333 23.1068 26.6508 22.0753C27.6427 20.0983 28.5283 17.7496 29.2094 15.9433C29.2372 15.8695 29.2647 15.7965 29.2918 15.7246C29.6435 14.7925 30.6722 14.3266 31.5896 14.6839C32.5069 15.0411 32.9655 16.0864 32.6139 17.0184C32.5816 17.1041 32.5485 17.1917 32.5148 17.2813C31.8463 19.0551 30.9008 21.5638 29.8205 23.717C29.2543 24.8454 28.6134 25.9542 27.9085 26.8347C27.2543 27.6518 26.2991 28.5885 25.036 28.815C23.6638 29.061 22.4115 28.5409 21.4604 27.9793C20.4903 27.4064 19.5428 26.6121 18.722 25.9101C18.6193 25.8223 18.5185 25.7358 18.4194 25.6509C17.6767 25.0138 17.0299 24.4591 16.4104 24.0321C15.6753 23.5255 15.2807 23.4203 15.1209 23.4203C14.9772 23.4203 14.6353 23.4925 14.0859 23.9594C13.545 24.4191 12.9315 25.1564 12.29 26.191C11.1135 28.0883 9.97889 30.763 9.06672 33.9034C10.8062 36.0928 13.5405 37.725 16.952 38.789C20.6803 39.9517 25.0555 40.3819 29.3837 40.1855C33.7109 39.9891 37.8993 39.1706 41.2425 37.9077C44.3821 36.7217 46.4904 35.2537 47.4693 33.8034C47.12 28.1218 45.1885 20.1896 41.4767 13.8621Z" fill="#1D2D35"/>
</svg>
