<svg width="124" height="42" viewBox="0 0 124 42" fill="none" xmlns="http://www.w3.org/2000/svg">
<path d="M15.5506 10.4546C6.95604 10.4546 0 17.4106 0 26.0052C0 34.5998 6.95604 41.5558 15.5506 41.5558C24.1452 41.5558 31.1012 34.5998 31.1012 26.0052C31.1012 17.4106 24.1452 10.4546 15.5506 10.4546ZM15.5506 33.796C11.2533 33.796 7.75985 30.3025 7.75985 26.0052C7.75985 21.7079 11.2533 18.2144 15.5506 18.2144C19.8479 18.2144 23.3414 21.7079 23.3414 26.0052C23.3414 30.3025 19.8479 33.796 15.5506 33.796Z" fill="#007DC1"/>
<path d="M42.8793 31.2249C42.8793 29.9883 44.3632 29.4009 45.2289 30.2665C49.1243 34.2237 55.5547 41.0252 55.5856 41.0561C55.6784 41.1488 55.7711 41.3034 56.1421 41.4271C56.2967 41.4889 56.544 41.4889 56.8223 41.4889H63.8402C65.1077 41.4889 65.4787 40.0359 64.8913 39.2939L53.267 27.3913L52.6487 26.773C51.3193 25.1963 51.4739 24.578 52.9887 22.9704L62.2016 12.6755C62.789 11.9335 62.418 10.5114 61.1196 10.5114H54.7509C54.5036 10.5114 54.3181 10.5114 54.1326 10.5732C53.7616 10.6968 53.607 10.8205 53.5143 10.9442C53.4834 10.9751 48.3823 16.4781 45.2289 19.8479C44.3632 20.7754 42.8174 20.1571 42.8174 18.8895V1.23663C42.8174 0.340073 42.0755 0 41.4881 0H36.2942C35.3977 0 34.9648 0.587399 34.9648 1.11297V40.2523C34.9648 41.1488 35.7068 41.3962 36.3251 41.3962H41.519C42.3228 41.3962 42.8484 40.8088 42.8484 40.2214V39.8195V31.2249H42.8793Z" fill="#007DC1"/>
<path d="M85.2971 40.0668L84.7406 34.873C84.6788 34.1619 83.9986 33.6672 83.2876 33.7909C82.8857 33.8527 82.4838 33.8836 82.0819 33.8836C77.9392 33.8836 74.5693 30.6375 74.322 26.5257C74.322 26.402 74.322 26.2475 74.322 26.0929V19.7242C74.322 18.8895 74.9403 18.2094 75.7751 18.2094H82.7311C83.2258 18.2094 83.9677 17.7765 83.9677 16.88V11.9644C83.9677 11.006 83.3494 10.5114 82.7929 10.5114H75.7751C74.9712 10.5114 74.322 9.92395 74.2911 9.12014V1.23663C74.2911 0.741978 73.9201 0 72.9617 0H67.7988C67.1496 0 66.5312 0.401905 66.5312 1.20571C66.5312 1.20571 66.5312 26.402 66.5312 26.5257C66.7477 34.9348 73.6419 41.6435 82.0819 41.6435C82.7929 41.6435 83.4731 41.5817 84.1532 41.4889C84.8952 41.3962 85.3899 40.7779 85.2971 40.0668Z" fill="#007DC1"/>
<path d="M122.767 33.542C118.377 33.542 117.697 31.9653 117.697 26.0604C117.697 26.0294 117.697 26.0294 117.697 25.9985V11.8082C117.697 11.3135 117.326 10.4788 116.336 10.4788H111.142C110.493 10.4788 109.782 11.0044 109.782 11.8082V12.4574C107.525 11.159 104.897 10.417 102.115 10.417C93.5205 10.417 86.5645 17.373 86.5645 25.9676C86.5645 34.5622 93.5205 41.5182 102.115 41.5182C105.98 41.5182 109.504 40.0961 112.225 37.7774C113.678 40.0034 116.027 41.4873 119.706 41.5182C120.324 41.5182 123.663 41.6419 123.663 40.0652V34.5313C123.663 34.0675 123.292 33.542 122.767 33.542ZM102.146 33.7893C97.8487 33.7893 94.3552 30.2958 94.3552 25.9985C94.3552 21.7012 97.8487 18.2078 102.146 18.2078C106.443 18.2078 109.937 21.7012 109.937 25.9985C109.906 30.2958 106.412 33.7893 102.146 33.7893Z" fill="#007DC1"/>
</svg>
