<svg width="241" height="49" viewBox="0 0 241 49" fill="none" xmlns="http://www.w3.org/2000/svg">
<path fill-rule="evenodd" clip-rule="evenodd" d="M66.2083 9.36202C67.9841 9.01182 69.785 9.01182 71.5358 9.36202L71.6111 9.38712V38.727L71.5358 38.7521C69.76 39.1023 67.9841 39.1023 66.2083 38.7521L66.133 38.727V26.8207H54.052V38.727L53.977 38.7521C53.0766 38.9272 52.2011 39.027 51.3005 39.027C50.3999 39.027 49.5247 38.9272 48.6492 38.7521L48.5742 38.727V9.38683L48.6492 9.36174C50.4002 8.98672 52.2011 8.98672 53.977 9.36174L54.052 9.38683V22.1432H66.133V9.38712L66.2083 9.36202ZM84.9926 17.6163C88.0942 17.6163 90.6457 18.6167 92.3214 20.4678C94.2224 22.5938 94.9978 25.7453 94.5726 29.6223V29.7222H79.865C79.9152 33.6745 81.6411 35.5755 85.1177 35.5755C87.6188 35.5755 89.3199 34.3498 89.6701 32.2988V32.2238H89.7451C91.3709 31.9985 92.7466 32.0986 94.2224 32.5988L94.2974 32.6239V32.6989C93.9221 36.151 90.9209 39.6273 85.0678 39.6273C81.6411 39.6273 79.0146 38.5519 77.2887 36.4761C75.688 34.55 74.8875 31.8234 74.8875 28.3216C74.8875 21.6182 78.6644 17.6163 84.9926 17.6163ZM84.8927 21.4183C81.7911 21.4183 79.9651 23.3193 79.8151 26.6456H89.5951C89.6701 25.0201 89.27 23.6692 88.3945 22.7438C87.5689 21.8683 86.3683 21.4183 84.8925 21.4183H84.8927ZM98.1744 9.36202C99.8253 8.98701 101.526 8.98701 103.177 9.36202L103.252 9.38712V38.727L103.177 38.7521C102.351 38.9272 101.501 39.027 100.676 39.027C99.8504 39.027 98.9997 38.9272 98.1744 38.7521L98.0994 38.727V9.38683L98.1744 9.36202ZM117.709 17.6163C123.712 17.6163 127.139 21.6433 127.139 28.647C127.139 35.5005 123.687 39.6025 117.909 39.6025C115.833 39.6025 113.983 39.0521 112.232 37.9516V47.7316L112.157 47.7567C111.331 47.9318 110.481 48.0316 109.655 48.0316C108.83 48.0316 107.979 47.9318 107.154 47.7567L107.079 47.7316V18.5417L107.154 18.5169C108.38 18.1416 109.405 18.1416 110.656 18.5169L110.706 18.5417L111.006 20.0925C113.182 18.467 115.508 17.6163 117.709 17.6163ZM112.157 23.394V33.8744C113.632 34.9002 115.083 35.4001 116.609 35.4001C120.185 35.4001 122.086 33.0742 122.086 28.722C122.086 24.2695 120.16 21.8435 116.659 21.8435C115.133 21.8435 113.707 22.3437 112.157 23.3943V23.394ZM149.15 22.9189C153.227 24.4948 157.455 26.1206 157.479 31.048C157.429 38.4769 150.426 39.6025 146.174 39.6025C141.847 39.6025 138.47 38.4769 136.419 36.2756C134.893 34.6501 134.168 32.5489 134.318 30.1727V30.0977L134.393 30.0726C136.144 29.6723 137.944 29.6474 139.72 29.9976L139.795 30.0225V30.0977C139.645 31.4233 139.97 32.499 140.746 33.3494C141.796 34.4998 143.648 35.1252 146.074 35.1252C148.275 35.1252 149.925 34.6498 150.876 33.6745C151.526 32.9992 151.851 32.1237 151.826 31.0231C151.777 28.8971 149.4 28.0966 145.448 26.7209C144.648 26.4457 143.723 26.1206 142.772 25.7704L142.322 25.6204C139.42 24.5698 134.543 22.8188 134.593 17.5413C134.668 12.2386 138.945 9.06201 146.048 9.06201H146.174C150 9.08711 153.027 10.1374 154.903 12.1385C156.429 13.7392 157.179 15.8904 157.054 18.3418V18.4168L156.979 18.4416C155.078 18.8668 153.327 18.917 151.601 18.5668L151.526 18.5417V18.467C151.626 17.0163 151.276 15.8405 150.476 14.9903C149.55 13.9648 147.975 13.4395 145.949 13.4395C143.898 13.4395 142.197 13.9899 141.221 15.0151C140.546 15.6907 140.22 16.566 140.246 17.5666C140.321 19.7178 142.722 20.593 146.699 22.0189C147.474 22.2941 148.275 22.5941 149.15 22.9192V22.9189ZM170.311 21.8435C166.709 21.8435 165.033 23.9946 165.033 28.5968C165.033 33.1991 166.709 35.3502 170.311 35.3502C171.236 35.3502 174.338 35.1249 174.813 31.9235V31.8485H174.888C176.539 31.5485 178.09 31.6483 179.491 32.1237L179.566 32.1488V32.2238C179.391 34.1248 178.54 35.9006 177.139 37.2013C175.464 38.7769 173.062 39.6025 170.211 39.6025C163.608 39.6025 159.956 35.7004 159.956 28.6219C159.956 21.5181 163.632 17.5912 170.311 17.5912C173.112 17.5912 175.488 18.3917 177.139 19.9174C178.59 21.2432 179.466 23.1191 179.616 25.1701V25.2451L179.541 25.2702C178.065 25.6951 176.514 25.7955 174.888 25.5454H174.813V25.4701C174.638 24.1195 173.838 21.8435 170.311 21.8435ZM192.272 17.6163C198.85 17.6163 202.452 21.5184 202.452 28.647C202.452 35.7252 198.85 39.6273 192.272 39.6273C185.719 39.6273 182.092 35.7255 182.092 28.6467C182.092 21.5432 185.694 17.6163 192.272 17.6163ZM197.499 28.6219C197.499 24.0696 195.799 21.8432 192.272 21.8432C188.695 21.8432 187.044 23.9946 187.044 28.6219C187.044 33.1743 188.745 35.3753 192.272 35.3753C195.799 35.3753 197.499 33.1492 197.499 28.6219ZM218.911 18.5417C220.586 18.1168 222.262 18.1168 223.913 18.5417L223.988 18.5668V38.727L223.913 38.7521C222.713 39.0772 221.462 39.0772 220.261 38.7521L220.211 38.727L219.711 36.4256C217.36 38.6018 215.183 39.5774 212.657 39.5774C207.98 39.5774 205.279 36.7259 205.279 31.7236V18.5668L205.354 18.5417C207.005 18.1416 208.705 18.1416 210.356 18.5417L210.431 18.5668V30.5728C210.431 33.8744 211.482 35.2755 213.933 35.2755C215.684 35.2755 217.185 34.625 218.835 33.1994V18.5668L218.911 18.5417ZM239.746 34.7998C240.121 36.2257 240.121 37.6014 239.721 38.9272L239.696 38.9771H239.646C238.22 39.2523 236.97 39.4023 235.869 39.4023C234.093 39.4023 232.743 39.027 231.792 38.2516C230.041 36.8009 229.891 34.2497 229.891 31.7484L229.841 22.7689H227.265L227.24 22.6939C226.915 21.2931 226.915 19.8926 227.24 18.5169L227.265 18.4416H229.841L229.791 12.8891L229.866 12.8637C231.517 12.4887 233.218 12.4887 234.869 12.8637L234.944 12.8888V18.4416H239.021L239.046 18.5169C239.321 19.8926 239.321 21.2931 239.046 22.6691L239.021 22.7438H234.944V32.0986C234.944 33.3494 235.219 34.1496 235.769 34.5999C236.47 35.1503 237.62 35.2002 239.621 34.7251L239.721 34.7L239.746 34.7998Z" fill="#213743"/>
<path fill-rule="evenodd" clip-rule="evenodd" d="M16.804 14.5968L3.05772 28.6382C1.33979 26.8829 0.265807 24.4697 0.0507813 21.6173C0.0507813 18.9848 1.33951 16.3521 3.05772 14.5968L17.019 0.555664C18.7372 2.31095 19.8109 4.94344 19.8109 7.57622C19.8109 10.209 18.5225 12.8418 16.8042 14.5968H16.804ZM22.8509 34.0386L36.7477 19.9972C38.4851 21.9718 39.571 24.3853 39.571 27.0178C39.571 29.6506 38.2677 32.2834 36.531 34.0386L22.6336 48.0798C20.8966 46.3245 19.8109 43.6917 19.8109 41.0592C19.8109 38.4264 21.1136 35.7936 22.8509 34.0386ZM22.5101 14.5968L26.6133 10.4925L36.7634 0.555664C38.491 2.28385 39.5707 4.87614 39.5707 7.46843C39.5707 10.0607 38.2752 12.6527 36.5473 14.3809L26.6133 24.3177L22.5101 28.422L16.6796 34.2545L12.5765 38.3588L2.85838 48.0798C1.13047 46.3516 0.0507812 43.7593 0.0507812 41.167C0.0507812 38.5747 1.34664 35.9824 3.07426 34.2545L12.7923 24.5336L16.6793 20.4293L22.5101 14.5968Z" fill="#1292EE"/>
</svg>
