<svg width="156" height="36" viewBox="0 0 156 36" fill="none" xmlns="http://www.w3.org/2000/svg">
<path d="M56.2715 34.9199L51.6995 24.2768H47.8309V34.9199H37.5439V0H55.744C63.7449 0 67.9652 5.45349 67.9652 11.9625C67.9652 17.9437 64.5362 21.1982 61.8106 22.5176L67.9652 34.8319H56.2715V34.9199ZM57.5024 12.6662C57.5024 10.2913 55.8319 9.23574 54.1614 9.23574H47.9188V16.1845H54.1614C55.9198 16.1845 57.5024 15.129 57.5024 12.6662Z" fill="black"/>
<path d="M96.8916 34.9199V0H122.829V9.23574H107.266V13.8976H122.477V23.1333H107.266V34.9199H96.8916Z" fill="black"/>
<path d="M0.000976562 34.9199V0H15.2995C26.114 0 34.115 6.24512 34.115 17.416C34.115 28.5868 26.114 34.9199 15.3875 34.9199H0.000976562ZM23.5643 17.416C23.5643 12.6662 20.9266 9.23574 15.3875 9.23574H10.3759V25.6842H15.2995C20.487 25.6842 23.5643 21.8139 23.5643 17.416Z" fill="black"/>
<path d="M135.664 34.9199V9.23574H126.521V0H155.183V9.23574H145.951V34.9199H135.664Z" fill="black"/>
<path d="M93.638 0C93.8138 0 93.9018 0 94.0776 0C94.6052 0.0879594 94.781 0.615716 94.5172 0.967554C94.4293 1.05551 94.4293 1.14347 94.3414 1.23143L85.5491 11.1708C85.5491 11.1708 85.3733 11.3468 85.2853 11.4347C84.9336 11.8745 85.2853 12.4023 85.9008 12.4902C85.9887 12.4902 86.1646 12.4902 86.1646 12.4902H89.1539C89.1539 12.4902 89.3298 12.4902 89.4177 12.4902C90.0332 12.5782 90.2969 13.106 90.0332 13.5458C89.9452 13.6337 89.7694 13.8096 89.7694 13.8096L83.351 21.1103C83.2631 21.1982 83.1752 21.2862 83.0873 21.3741C82.8235 21.8139 83.1752 22.3417 83.7027 22.3417C83.8786 22.3417 85.9008 22.3417 86.0766 22.3417C86.4283 22.3417 86.6921 22.5176 86.8679 22.7815C86.9559 23.0454 86.9559 23.3092 86.6921 23.4852C86.6042 23.5731 86.5163 23.6611 86.5163 23.6611L71.5694 34.9199C71.5694 34.9199 71.3935 35.0958 71.3056 35.1838C71.1298 35.2717 70.9539 35.2717 70.866 35.1838C70.7781 35.0958 70.6902 34.9199 70.6902 34.8319C70.6902 34.744 70.7781 34.5681 70.7781 34.5681L74.9104 26.124L74.9984 25.8601C75.2621 25.3323 74.9984 24.8046 74.3829 24.7166C74.295 24.7166 74.1191 24.7166 74.1191 24.7166H71.2177C71.1298 24.7166 70.9539 24.7166 70.866 24.7166C70.3385 24.6286 70.0747 24.1888 70.2505 23.837C70.3385 23.749 70.4264 23.5731 70.4264 23.5731L75.5259 15.0411C75.5259 15.0411 75.6138 14.9531 75.6138 14.8651C75.8776 14.3374 75.5259 13.8976 74.9104 13.8976C74.6467 13.8976 74.1191 13.8976 74.1191 13.8976C74.1191 13.8976 72.7124 13.8976 71.8331 13.8976H71.5694C71.1298 13.8976 70.866 13.6337 70.7781 13.2819C70.7781 13.106 70.7781 12.93 70.9539 12.7541L72.5365 10.0274L77.724 0.967554L77.8119 0.791635C78.0757 0.351838 78.5153 0.0879594 79.1307 0.0879594L93.638 0Z" fill="black"/>
</svg>
