<svg width="124" height="79" viewBox="0 0 124 79" fill="none" xmlns="http://www.w3.org/2000/svg">
<path fill-rule="evenodd" clip-rule="evenodd" d="M122.585 50.9588C122.12 50.9942 121.988 51.6597 120.063 51.8061L115.834 52.1274C115.83 52.1232 115.826 52.1185 115.82 52.115L38.1887 58.0068C37.3473 58.0705 36.5407 58.4614 35.9461 59.0938L27.0658 68.5421L27.0617 59.7605C27.0611 59.2161 26.6141 58.8092 26.0638 58.8512L15.4405 59.6572L2.91874 60.4815C1.32563 60.6025 -0.000590282 62.0793 1.97101e-07 64.2422C0.000590678 65.1604 0.266897 66.3201 0.731014 66.2847C1.19631 66.2493 1.32799 65.5838 3.25354 65.438L21.1398 64.0804C21.7031 64.0598 22.1554 64.4773 22.156 65.0394L22.1619 76.9275C22.1631 78.288 23.8294 78.8436 24.8037 77.8073L37.9625 63.8076C38.5696 63.1617 39.3933 62.7619 40.2518 62.697L93.5621 58.651L120.398 56.762C121.991 56.641 123.317 55.1642 123.316 53.0013C123.316 52.0831 123.05 50.9234 122.585 50.9588Z" fill="#231F20"/>
<path fill-rule="evenodd" clip-rule="evenodd" d="M119.621 34.1782C120.451 29.8972 124.183 32.8496 123.63 35.1053C122.386 38.9351 119 46.1827 112.711 46.681C107.252 47.1133 103.658 41.1783 103.658 36.6175C103.658 34.4752 110.086 31.7555 110.086 25.3972C110.086 23.6694 109.187 22.5658 107.874 22.6698C106.215 22.8014 103.106 25.259 100.963 32.7534V44.6397C100.963 45.953 101.032 47.6057 99.0284 47.7646C97.6549 47.8738 95.7382 47.5455 95.714 45.0324C94.1982 46.9166 92.2012 48.3054 89.5612 48.5145C86.3136 48.7713 82.4436 47.2815 82.4436 41.2002C82.4436 36.7775 83.9493 33.41 86.1606 27.292L79.8868 26.13C79.8177 28.8308 79.4032 34.8756 78.159 38.9824C78.1378 39.0538 78.1077 39.1087 78.0829 39.1743C76.8346 43.7706 74.0635 49.7421 68.3464 50.1944C65.9278 50.3857 64.0619 49.3589 63.025 47.7823C61.6433 49.4811 59.7083 50.8782 57.0825 51.0866C53.9582 51.334 51.6996 49.9741 50.3469 47.65C48.5577 50.0096 46.1361 51.9534 42.9853 52.2032C37.6645 52.6242 34.8308 49.1858 34.8308 43.7269V19.366C33.3841 20.6043 31.7893 21.7291 30.616 22.2918C30.8923 24.2056 31.0305 26.0603 31.0305 27.719C31.0305 45.2025 23.4292 53.752 15.3438 54.3921C5.25427 55.191 0.00195312 45.4481 0.00195312 33.0781C0.00195312 9.58295 13.9615 3.08708 14.5142 2.83613C14.722 2.75051 14.9978 2.65898 15.2747 2.63714C16.7946 2.51668 17.6933 4.519 17.6933 6.03948C17.6933 6.9376 17.417 7.6509 16.7946 7.69991C16.6564 7.71113 16.5874 7.71703 16.4492 7.65799C14.0306 9.23162 5.53062 14.259 5.53062 31.9497C5.53062 44.4573 10.6448 49.5809 15.5511 49.1929C21.2864 48.7383 25.5709 41.0738 25.6406 28.1453C25.6406 26.8326 25.5709 25.3871 25.4327 23.9464L24.1201 24.0503C18.3842 24.5044 13.7542 21.4853 13.7542 16.1644C13.7542 12.5702 16.311 9.39636 20.0428 9.10112C25.0873 8.70196 27.9901 12.4798 29.51 17.1966C31.4226 16.3014 33.6959 14.0983 34.8308 12.8902V12.2838C34.8308 7.10116 37.6645 3.21404 41.1194 2.94064C47.2002 2.45881 47.2699 9.7099 47.2699 13.5787C47.2699 23.7379 40.9813 38.1947 40.0825 39.0951V43.1033C40.0825 45.8673 41.1885 47.784 43.7453 47.5815C45.9891 47.4044 47.8161 45.0897 48.9179 42.6569C48.883 42.2146 48.8588 41.7653 48.8588 41.3029C48.8588 29.7626 56.8752 22.0787 65.3061 21.4109C67.1714 21.2632 68.4846 22.2647 68.4846 24.0615C68.4846 25.2366 68.2774 25.6676 67.5865 25.7219C66.9647 25.7715 66.2733 25.6877 65.5824 25.7426C60.3307 26.1583 54.1797 31.1378 54.1797 41.088C54.1797 44.6823 55.7001 46.635 58.1193 46.4437C59.9847 46.296 61.2288 44.5382 61.9888 42.5429V31.9013C61.9888 30.5881 61.7124 30.1954 61.7124 29.7118C61.7124 29.021 62.542 28.4712 63.5092 28.3945C65.7897 28.2144 67.2411 29.4809 67.2411 31.1402V42.5418C67.2411 44.0623 67.9319 45.666 69.5906 45.5355C72.3546 45.3164 73.5988 40.7945 74.2205 37.7051C74.2323 37.6431 74.2489 37.5912 74.2619 37.5321C74.2719 37.4725 74.2737 37.414 74.289 37.3538C75.0496 34.5295 75.3253 28.7718 75.395 25.2419C73.6673 24.4111 72.4231 23.0589 72.4231 21.0548C72.4231 19.1192 74.0818 17.744 75.8786 17.6023C77.5367 17.4706 79.4717 18.1467 80.2316 20.9196C83.4314 21.353 87.7502 22.26 87.7502 22.26C89.5724 22.6331 91.3439 24.2558 91.0675 25.8672C91.0675 26.6962 87.6953 33.4584 87.6953 40.3694C87.6953 42.3044 88.594 44.0304 90.4599 43.8822C93.6385 43.6306 94.8135 39.1152 95.4353 36.0246C95.5038 35.6591 95.5983 35.3432 95.7116 35.0728V3.52345C95.7116 1.51936 95.0202 1.4361 95.0202 0.952498C95.0202 0.468304 96.2643 0.09394 97.2315 0.0171776C99.5126 -0.163509 100.963 1.10366 100.963 2.76232V24.3231C103.175 21.1073 105.939 18.1933 109.049 17.9471C113.333 17.6076 115.199 21.0536 115.199 24.923C115.199 30.2444 111.329 34.49 108.565 36.7125C109.256 39.6295 110.776 42.2731 113.472 42.0599C116.65 41.8084 119 37.2682 119.621 34.1782ZM23.9128 19.2987L24.7419 19.2338C24.051 16.1095 22.6687 13.8692 20.5264 14.0387C19.1441 14.148 18.7987 15.1429 18.7987 15.9034C18.7987 17.5615 20.3192 19.5833 23.9128 19.2987ZM40.0825 10.3476V30.0425C41.5339 27.0251 42.9853 17.7883 42.9853 13.9879C42.9853 9.42647 42.2254 7.41412 41.1194 7.50151C40.3595 7.56174 40.0825 9.24224 40.0825 10.3476Z" fill="#231F20"/>
</svg>
