<svg width="202" height="45" viewBox="0 0 202 45" fill="none" xmlns="http://www.w3.org/2000/svg">
<path d="M53.6408 1.24897C48.1254 1.24897 46.1412 5.11648 46.1412 8.74858V10.9682H45.0314C44.157 10.9682 43.4844 11.6408 43.4844 12.5152C43.4844 13.3896 44.157 14.0622 45.0314 14.0622H46.1412V29.2632C46.1412 30.1376 46.8138 30.9111 47.7891 30.9111C48.7644 30.9111 49.437 30.2385 49.437 29.2632V13.9277H52.9682C53.8426 13.9277 54.5152 13.2551 54.5152 12.3807C54.5152 11.5063 53.8426 10.8337 52.9682 10.8337H49.437V8.61406C49.437 6.62986 50.2105 4.20846 53.7417 4.20846C54.6161 4.20846 55.2887 3.53584 55.2887 2.76234C55.1878 1.88795 54.5152 1.24897 53.6408 1.24897ZM66.2186 10.3965C63.999 10.2956 62.0148 11.2709 60.7032 13.0533V12.1789C60.7032 11.3045 60.0306 10.531 59.0553 10.531C58.08 10.531 57.4074 11.3045 57.4074 12.1789V29.1623C57.4074 30.0367 58.08 30.8102 59.0553 30.8102C60.0306 30.8102 60.7032 30.1376 60.7032 29.1623V19.7794C60.7032 15.811 62.7883 13.4905 66.2186 13.4905C67.093 13.4905 67.7656 12.8179 67.7656 11.9435C67.7656 11.0691 66.9921 10.3965 66.2186 10.3965ZM85.758 18.7705C85.758 16.8872 85.2199 15.0039 84.211 13.4569C82.6639 11.3718 80.1417 10.1611 77.4848 10.3628C71.8685 10.3628 68.64 14.1295 68.64 20.6201C68.64 27.3463 71.8349 30.9784 77.922 30.9784C80.3434 31.0793 82.7648 30.2049 84.6481 28.557C84.9845 28.3215 85.1862 27.8843 85.1862 27.4472C85.1862 26.6737 84.5136 26.001 83.7401 26.001C83.4038 26.001 83.0675 26.1019 82.8657 26.3373C81.5541 27.4471 79.7717 28.1198 78.0229 28.1198C74.3908 28.1198 72.0703 25.6984 71.9694 21.8309H83.8746C85.758 21.6627 85.758 19.8803 85.758 18.7705ZM77.5857 13.2551C80.8815 13.2551 82.5631 15.1384 82.6639 18.7705H71.9694C72.3057 15.2393 74.2899 13.2551 77.5857 13.2551ZM96.587 19.0059C94.1656 18.1315 92.1814 17.4589 92.1814 15.7101C92.1814 13.7259 94.401 13.4905 95.6117 13.4905C97.2596 13.3896 98.9075 14.0286 100.017 15.1384C100.555 15.6765 101.564 15.6765 102.102 15.1384C102.439 14.8021 102.54 14.4658 102.54 14.0286C102.54 13.6923 102.439 13.356 102.203 13.0197C100.555 11.1363 98.134 10.0265 95.679 10.262C91.6097 10.262 89.0537 12.347 89.0537 15.5756C89.0537 19.544 92.5849 20.7547 95.679 21.8645C97.9995 22.638 100.085 23.3106 100.085 25.0594C100.085 27.3799 97.4277 27.8171 95.8807 27.8171C93.9974 27.918 92.1141 27.1445 90.8025 25.8329C90.4662 25.4966 90.1299 25.3957 89.6927 25.2948C88.9192 25.2948 88.2466 25.9674 88.2466 26.7409C88.2466 27.0772 88.3475 27.4135 88.5829 27.7498C90.4662 29.9694 93.123 31.0456 95.8807 31.0456C100.522 31.0456 103.279 28.826 103.279 25.2948C103.078 21.1919 99.6474 20.1157 96.587 19.0059ZM115.656 10.2956C113.671 10.1947 111.687 11.0691 110.342 12.6161V1.78706C110.342 0.912665 109.669 0.13916 108.694 0.13916C107.82 0.13916 107.147 0.811774 107.147 1.78706V29.1623C107.147 30.0367 107.82 30.8102 108.694 30.8102C109.568 30.8102 110.342 30.1376 110.342 29.1623V18.905C110.342 15.1384 112.124 13.2887 115.656 13.2887C119.187 13.2887 120.397 14.8357 120.397 18.6023V29.1959C120.397 30.0703 121.07 30.8438 122.045 30.8438C122.92 30.8438 123.592 30.1712 123.592 29.1959V18.0642C123.626 12.9188 120.969 10.2956 115.656 10.2956ZM142.493 0.13916C141.618 0.13916 140.946 0.811773 140.946 1.68617V12.5152C139.5 11.0691 137.515 10.2956 135.531 10.2956C129.78 10.2956 126.922 13.7259 126.922 20.5529C126.922 27.3799 130.016 30.9111 135.767 30.9111C141.08 30.9111 144.275 27.7162 144.275 22.4026V1.75343C144.141 0.912663 143.367 0.13916 142.493 0.13916ZM135.632 28.0525C131.865 28.0525 130.016 25.6311 130.016 20.6538C130.016 15.6765 131.899 13.2551 135.632 13.2551C137.852 13.356 139.937 14.7012 140.946 16.6854V22.4362C140.946 25.9674 138.961 28.0525 135.632 28.0525ZM164.891 18.7705C164.891 16.8872 164.353 15.0039 163.344 13.4569C161.797 11.3718 159.274 10.1611 156.617 10.3628C151.001 10.3628 147.773 14.1295 147.773 20.6201C147.773 27.3463 150.968 30.9784 157.055 30.9784C159.476 31.0793 161.897 30.2049 163.781 28.557C164.117 28.3215 164.319 27.8843 164.319 27.4472C164.319 26.6737 163.646 26.001 162.873 26.001C162.536 26.001 162.2 26.1019 161.998 26.3373C160.687 27.4471 158.904 28.1198 157.156 28.1198C153.523 28.1198 151.203 25.6984 151.102 21.8309H163.007C164.891 21.6627 164.891 19.8803 164.891 18.7705ZM156.617 13.2551C159.913 13.2551 161.595 15.1384 161.696 18.7705H151.001C151.304 15.2393 153.288 13.2551 156.617 13.2551ZM175.686 19.0059C173.265 18.1315 171.28 17.4589 171.28 15.7101C171.28 13.7259 173.5 13.4905 174.711 13.4905C176.359 13.3896 178.007 14.0286 179.116 15.1384C179.453 15.4747 179.789 15.5756 180.226 15.5756C181 15.5756 181.672 14.903 181.672 14.1295C181.672 13.7932 181.571 13.4569 181.336 13.1205C179.688 11.2372 177.267 10.1274 174.812 10.3628C170.742 10.3628 168.186 12.4479 168.186 15.6765C168.186 19.6449 171.718 20.8556 174.812 21.9654C177.132 22.7389 179.217 23.4115 179.217 25.1603C179.217 27.4808 176.56 27.918 175.013 27.918C173.13 28.0189 171.247 27.2454 169.935 25.9338C169.599 25.5975 169.263 25.4966 168.825 25.3957C168.052 25.3957 167.379 26.0683 167.379 26.8418C167.379 27.1781 167.48 27.5144 167.716 27.8507C169.599 29.9358 172.256 31.0456 175.114 30.9447C179.755 30.9447 182.513 28.7251 182.513 25.1939C182.21 21.1919 178.78 20.1157 175.686 19.0059ZM201.514 28.1534L194.25 18.7705L200.875 13.4569C201.312 13.1205 201.548 12.6834 201.548 12.1453C201.548 11.2709 200.875 10.5983 200.001 10.5983C199.564 10.5983 199.227 10.6991 198.891 11.0355L189.407 18.7705V1.78706C189.407 0.912665 188.634 0.240053 187.759 0.240053C186.885 0.240053 186.212 0.912665 186.212 1.78706V29.1623C186.212 30.0367 186.986 30.7093 187.86 30.7093C188.735 30.7093 189.407 30.0367 189.407 29.1623V22.5371L191.627 20.7547L198.925 30.0367C199.261 30.4739 199.799 30.8102 200.236 30.8102C201.111 30.8102 201.783 30.1376 201.783 29.2632C201.851 28.826 201.75 28.4897 201.514 28.1534Z" fill="#4D4D4D"/>
<path d="M18.7658 6.62842H32.8907C35.5475 6.62842 37.6326 8.71351 37.6326 11.3703V25.4951C37.6326 35.8533 29.2586 44.261 18.8667 44.261H18.7658C8.40763 44.261 0 35.887 0 25.4951C0 15.1033 8.40763 6.76294 18.7658 6.62842Z" fill="#25C16F"/>
<path d="M18.7657 15.0342C14.0238 15.0342 10.1562 18.9017 10.1562 23.6436V29.4953C10.1562 31.0423 11.4678 32.3539 13.0148 32.3539H15.4362V25.6278H12.1405V23.7445C12.2413 19.9779 15.4362 17.1193 19.102 17.3547C22.6332 17.4556 25.3909 20.3478 25.4918 23.7445V25.6278H22.196V32.3539H24.4156V32.4548C24.4156 33.9009 23.2049 35.1116 21.7588 35.1116H19.102C18.8666 35.1116 18.6648 35.2125 18.6648 35.4479C18.6648 35.6833 18.9002 35.8851 19.102 35.8851H21.7588C23.6421 35.8851 25.1891 34.3381 25.1891 32.4548V32.2194C26.5007 31.8831 27.4087 30.7733 27.4087 29.4617V23.7109C27.476 18.9017 23.6085 15.0342 18.7657 15.0342Z" fill="white"/>
</svg>
