<svg width="174" height="40" viewBox="0 0 174 40" fill="none" xmlns="http://www.w3.org/2000/svg">
<path fill-rule="evenodd" clip-rule="evenodd" d="M34.5353 39.3937H36.9357C37.4919 39.3937 37.9603 38.9348 37.9896 38.39V12.7813C37.9896 10.2577 35.9111 8.22165 33.3351 8.22165H30.2613C29.7051 8.22165 29.2367 7.7628 29.2367 7.21794V4.89511C29.2367 2.37152 27.1583 0.335449 24.5822 0.335449H4.70531C2.12922 0.335449 0.0507812 2.37152 0.0507812 4.89511V30.6185C0.0507812 33.1134 2.12922 35.1494 4.70531 35.1782H27.7438C27.9487 35.1782 28.1536 35.2355 28.3293 35.3502L33.9498 39.2216C34.1255 39.3363 34.3304 39.3937 34.5353 39.3937ZM28.944 31.5361H4.76386C4.17839 31.5361 3.73928 31.106 3.73928 30.5324V4.95246C3.73928 4.4076 4.20766 3.94877 4.76386 3.94877H24.5237C25.0799 3.94877 25.5483 4.4076 25.5483 4.95246V7.21794C25.5483 7.7628 25.0799 8.22165 24.5237 8.22165H9.79895C9.24275 8.22165 8.77436 8.68049 8.77436 9.22536V26.2883C8.77436 26.8331 9.24275 27.292 9.79895 27.292H28.1829C28.7391 27.292 29.2075 26.8331 29.2075 26.2883V12.8387C29.2075 12.2938 29.6758 11.8349 30.232 11.8349H33.2473C33.8035 11.8349 34.2719 12.2938 34.2719 12.8387V33.773C34.2719 34.2892 33.6863 34.5759 33.2765 34.2892L29.5295 31.7082C29.3539 31.5935 29.1489 31.5361 28.944 31.5361ZM25.0213 23.65H12.9605C12.6971 23.65 12.4628 23.4492 12.4628 23.1625V12.3225C12.4628 12.0644 12.6678 11.8349 12.9605 11.8349H25.0213C25.2848 11.8349 25.519 12.0357 25.519 12.3225V23.1625C25.519 23.4205 25.314 23.65 25.0213 23.65ZM131.233 5.78824C132.771 5.78824 134.017 4.56761 134.017 3.06185C134.017 1.5561 132.771 0.335449 131.233 0.335449C129.696 0.335449 128.45 1.5561 128.45 3.06185C128.45 4.56761 129.696 5.78824 131.233 5.78824ZM99.484 9.77415V8.2595H95.0003V27.1424H99.484V14.2424L104.716 12.1219V7.70411H104.664L99.484 9.77415ZM82.1115 8.24249C79.1995 8.24249 76.8285 9.17655 75.0246 11.0699C74.2002 11.9534 73.5561 12.9632 73.0921 14.1497C72.6541 15.3109 72.4219 16.5479 72.4219 17.8354C72.4219 20.4861 73.1952 22.6823 74.7673 24.3737C76.4936 26.2418 78.8646 27.1506 81.8798 27.1506C84.8174 27.1506 87.1623 26.2166 88.9407 24.3232C90.6154 22.5309 91.4658 20.2841 91.4658 17.5577C91.4658 14.8313 90.6415 12.635 89.0178 10.9184C87.2909 9.12605 84.9975 8.24249 82.1115 8.24249ZM85.6162 21.6726C84.7658 22.7076 83.5806 23.2377 82.0855 23.2377C80.4878 23.2377 79.174 22.7076 78.1944 21.6473C77.7304 21.1677 77.3701 20.5618 77.1123 19.8802C76.8545 19.1986 76.7254 18.4917 76.7254 17.7344C76.7254 16.2197 77.1378 14.9575 77.9882 13.8972C78.9162 12.7613 80.1785 12.1806 81.8022 12.1806C83.3999 12.1806 84.6627 12.7107 85.5646 13.7963C86.415 14.806 86.853 16.1188 86.853 17.7596C86.879 19.3501 86.4666 20.6628 85.6162 21.6726ZM128.962 8.26258H133.42V27.1707H128.962V8.26258ZM60.9321 8.24249C58.3809 8.24249 56.2938 8.97459 54.67 10.4387C53.1496 11.8272 52.3765 13.5691 52.3765 15.6644C52.3765 17.5324 53.0465 19.0724 54.3867 20.3093C53.2269 21.2181 52.66 22.3037 52.66 23.5912C52.66 24.3737 52.7631 25.0553 52.9435 25.6359C53.1239 26.2418 53.4846 26.7467 54.0516 27.2011C52.0415 28.2866 51.0623 30.0537 51.1396 32.4772C51.1911 34.5725 52.1189 36.2386 53.9228 37.5008C55.7266 38.7631 58.1231 39.3942 61.0607 39.3942C63.9988 39.3942 66.1891 38.8388 67.6837 37.728C69.1782 36.6173 69.9255 35.0269 69.9255 32.9316C69.9255 30.8616 69.3329 29.2459 68.1477 28.1099C67.5035 27.504 66.6786 27.0244 65.6735 26.5952C64.643 26.1913 63.2515 25.8379 61.4477 25.5602C59.6438 25.2825 58.3549 24.9796 57.5821 24.6009C57.2212 24.4495 56.9895 24.2728 56.8864 24.096C56.7833 23.9193 56.7317 23.6669 56.7317 23.3387C56.7317 23.0105 56.9634 22.5561 57.4014 21.9755C58.4064 22.3037 59.5146 22.4804 60.7004 22.4804C63.1224 22.4804 65.107 21.7735 66.6786 20.3346C67.3743 19.6782 67.9159 18.8957 68.3023 18.0121C68.6887 17.1286 68.8694 16.144 68.8694 15.0585C68.8694 13.973 68.6117 12.938 68.0961 11.9786C68.0961 11.9786 68.0961 11.9534 68.0701 11.9534H69.9515V8.24249H60.9321ZM57.8138 28.6653L58.7418 28.8167C61.3445 29.1954 63.2 29.7003 64.2566 30.3819C65.2101 30.9625 65.6735 31.7451 65.6735 32.7044C65.6735 34.7239 64.205 35.7085 61.2669 35.7085C59.5406 35.7085 58.1492 35.3551 57.0665 34.6735C56.577 34.3705 56.1906 33.9919 55.9329 33.5627C55.649 33.1336 55.5204 32.6539 55.5204 32.0733C55.5204 31.4927 55.7006 30.8868 56.0615 30.2557C56.4484 29.5993 57.041 29.0944 57.8138 28.6653ZM63.4317 17.8354C62.7099 18.4665 61.8595 18.7947 60.9066 18.7947C59.6177 18.7947 58.5871 18.4412 57.7883 17.7344C57.4274 17.4315 57.1696 17.0528 56.9634 16.6741C56.7833 16.2702 56.6801 15.8663 56.6801 15.4371C56.6801 15.008 56.7572 14.5788 56.9379 14.1497C57.5045 12.7107 58.7673 12.0039 60.7519 12.0039C61.9371 12.0039 62.8907 12.3068 63.5609 12.9127C64.2305 13.5186 64.5914 14.3264 64.5914 15.3109C64.5654 16.2702 64.179 17.1286 63.4317 17.8354ZM153.107 12.3573C153.443 13.2156 153.623 14.2254 153.623 15.3109V27.1001H149.242V26.2165C147.928 26.7972 146.717 27.1001 145.609 27.1001C144.217 27.1001 143.057 26.9739 142.078 26.7215C141.099 26.469 140.275 26.0903 139.604 25.6107C138.238 24.6009 137.543 23.162 137.543 21.2939C137.543 19.6277 138.368 18.2141 140.068 17.1033C141.898 15.8916 144.397 15.2857 147.542 15.2857L148.263 15.3109C148.337 15.3109 148.412 15.3168 148.489 15.3228C148.572 15.3294 148.659 15.3362 148.752 15.3362C148.839 15.3483 148.92 15.3546 148.997 15.3606C149.081 15.3672 149.162 15.3735 149.242 15.3867C149.139 13.5186 148.314 12.4078 146.768 12.1049C146.279 12.0039 145.712 11.9534 145.145 11.9534C144.552 11.9534 143.985 12.0039 143.444 12.1049C142.877 12.2059 142.336 12.3573 141.821 12.5088C140.686 12.8622 139.836 13.2914 139.347 13.7458L139.295 13.7205L138.754 9.85815C140.841 8.77262 143.161 8.24249 145.66 8.24249C149.551 8.24249 152.025 9.60568 153.107 12.3573ZM149.242 22.6318V20.2084V18.5675C148.907 18.517 148.572 18.4917 148.237 18.4917H147.516C144.887 18.4917 143.212 19.0724 142.49 20.2084C142.285 20.5365 142.182 20.89 142.182 21.2686C142.182 21.6473 142.259 21.9755 142.387 22.2532C142.542 22.5309 142.774 22.7833 143.083 22.96C143.702 23.3134 144.63 23.4901 145.841 23.4901C147.052 23.4901 148.186 23.1872 149.242 22.6318ZM170.093 16.5984C170.84 16.9518 171.459 17.381 171.923 17.8859C172.773 18.7947 173.211 20.0064 173.211 21.5716C173.211 23.2125 172.541 24.5504 171.201 25.5854C169.81 26.671 167.851 27.2011 165.326 27.2011C162.285 27.2011 159.914 26.6962 158.239 25.7116V21.0667C158.239 21.0414 158.342 21.1424 158.522 21.3443C158.703 21.5463 159.064 21.7735 159.553 22.0764C160.043 22.3794 160.636 22.6318 161.28 22.8591C162.697 23.3387 164.166 23.5659 165.712 23.5659C167.774 23.5659 168.805 22.8843 168.805 21.5463C168.805 21.1172 168.598 20.789 168.212 20.587C167.516 20.2336 166.485 19.9559 165.12 19.7792C163.754 19.5773 162.646 19.3248 161.77 18.9714C160.893 18.618 160.172 18.1888 159.631 17.7091C158.625 16.7751 158.11 15.5634 158.11 14.0739C158.11 12.2564 158.832 10.8174 160.249 9.78239C161.667 8.74737 163.625 8.24249 166.125 8.24249C168.598 8.24249 170.712 8.92408 172.464 10.3125C172.387 10.6155 172.309 10.9184 172.206 11.1961C171.923 11.9786 171.717 12.534 171.588 12.8622L171.176 13.8972C171.15 13.9982 171.124 14.0487 171.124 14.0487C171.098 14.0487 170.995 13.9225 170.84 13.6701C170.093 12.8118 168.908 12.2564 167.336 11.9786C166.846 11.8777 166.357 11.8272 165.841 11.8272C163.676 11.8272 162.594 12.4583 162.594 13.7458C162.594 14.1749 162.8 14.5284 163.264 14.7555C164.115 15.21 165.274 15.5381 166.743 15.7401C168.212 15.9673 169.32 16.245 170.093 16.5984ZM115.845 8.24249C113.294 8.24249 111.206 8.97459 109.583 10.4387C108.062 11.8272 107.289 13.5691 107.289 15.6644C107.289 17.5324 107.959 19.0724 109.3 20.3093C108.14 21.2181 107.573 22.3037 107.573 23.5912C107.573 24.3737 107.676 25.0553 107.856 25.6359C108.037 26.2418 108.398 26.7467 108.964 27.2011C106.954 28.2866 105.975 30.0537 106.052 32.4772C106.104 34.5725 107.032 36.2386 108.836 37.5008C110.639 38.7631 113.036 39.3942 115.974 39.3942C118.912 39.3942 121.102 38.8388 122.597 37.728C124.091 36.6173 124.838 35.0269 124.838 32.9316C124.838 30.8616 124.246 29.2459 123.061 28.1099C122.416 27.504 121.591 27.0244 120.586 26.5952C119.556 26.1913 118.164 25.8379 116.36 25.5602C114.557 25.2825 113.268 24.9796 112.495 24.6009C112.134 24.4495 111.902 24.2728 111.799 24.096C111.696 23.9193 111.645 23.6669 111.645 23.3387C111.645 23.0105 111.876 22.5561 112.314 21.9755C113.319 22.3037 114.427 22.4804 115.613 22.4804C118.035 22.4804 120.019 21.7735 121.591 20.3346C122.287 19.6782 122.828 18.8957 123.215 18.0121C123.602 17.1286 123.782 16.144 123.782 15.0585C123.782 13.973 123.524 12.938 123.009 11.9786C123.009 11.9786 123.009 11.9534 122.983 11.9534H124.864V8.24249H115.845ZM112.727 28.6653L113.655 28.8167C116.257 29.1954 118.113 29.7003 119.169 30.3819C120.122 30.9625 120.586 31.7451 120.586 32.7044C120.586 34.7239 119.118 35.7085 116.18 35.7085C114.453 35.7085 113.061 35.3551 111.979 34.6735C111.49 34.3705 111.103 33.9919 110.846 33.5627C110.562 33.1336 110.433 32.6539 110.433 32.0733C110.433 31.4927 110.613 30.8868 110.974 30.2557C111.361 29.5993 111.954 29.0944 112.727 28.6653ZM118.345 17.8354C117.623 18.4665 116.772 18.7947 115.819 18.7947C114.531 18.7947 113.5 18.4412 112.701 17.7344C112.34 17.4315 112.082 17.0528 111.876 16.6741C111.696 16.2702 111.593 15.8663 111.593 15.4371C111.593 15.008 111.67 14.5788 111.851 14.1497C112.417 12.7107 113.68 12.0039 115.664 12.0039C116.85 12.0039 117.803 12.3068 118.473 12.9127C119.143 13.5186 119.504 14.3264 119.504 15.3109C119.478 16.2702 119.092 17.1286 118.345 17.8354Z" fill="#161616"/>
</svg>
