<svg width="125" height="88" viewBox="0 0 125 88" fill="none" xmlns="http://www.w3.org/2000/svg">
<path d="M59.3878 13.7393V52.0396H27.466L59.3878 13.7393ZM59.3878 0C59.3878 8.75242 52.2523 15.8426 43.444 15.8426C34.6356 15.8426 27.466 8.75242 27.466 0H59.3878ZM64.6455 52.0396C64.6455 43.2872 71.781 36.197 80.5893 36.197C89.3977 36.197 96.5332 43.2872 96.5332 52.0396H64.6455ZM64.6455 38.3003V0H96.5673L64.6455 38.3003ZM82.5012 84.7763C84.14 84.8103 85.7446 84.1996 86.9395 83.0801L89.1246 85.4209C87.6906 86.9136 85.6763 87.9991 82.5354 87.9991C77.1752 87.9991 73.727 84.471 73.727 79.6877C73.6246 75.1758 77.2435 71.4781 81.7501 71.3763H82.0232C87.3492 71.3763 90.3536 75.3794 90.0805 80.9768H77.5508C77.9946 83.3176 79.6334 84.8103 82.5012 84.7763ZM86.325 78.3647C85.9836 76.1935 84.6862 74.5991 82.0915 74.5991C79.6675 74.5991 77.9946 75.9561 77.5508 78.3647H86.325ZM0.0507812 84.6067L9.71267 74.8366H0.289768V71.7834H14.1851V74.9044L4.52325 84.6746H14.3217V87.7277H0.0507812V84.6067ZM25.1785 84.7763C26.8173 84.8103 28.4219 84.1996 29.5827 83.0801L31.7677 85.4209C30.3338 86.9136 28.3195 87.9991 25.1785 87.9991C19.8184 87.9991 16.3702 84.471 16.3702 79.6877C16.2677 75.1758 19.8867 71.4781 24.3933 71.3763H24.6664C29.9924 71.3763 32.9968 75.3794 32.7237 80.9768H20.2281C20.6719 83.3176 22.3107 84.8103 25.1785 84.7763ZM29.0023 78.3647C28.6609 76.1935 27.3636 74.5991 24.7688 74.5991C22.3448 74.5991 20.6719 75.9561 20.2281 78.3647H29.0023ZM53.6521 79.7216C53.6521 74.633 57.4759 71.4442 61.7094 71.4442C63.7578 71.4102 65.7039 72.2923 67.0695 73.8189V64.4219H70.4836V87.6938H67.0695V85.4887C65.738 87.0832 63.7578 88.0331 61.6752 87.9991C57.5783 87.9991 53.6521 84.7763 53.6521 79.7216ZM67.2402 79.6877C67.1719 76.9059 64.8162 74.7009 62.0166 74.7687C59.2171 74.8366 56.9979 77.1773 57.0662 79.9591C57.1345 82.707 59.3878 84.8781 62.1532 84.8781C65.0893 84.8781 67.2402 82.5713 67.2402 79.6877ZM92.3338 84.3014L95.4406 82.707C96.26 84.1996 97.8646 85.0816 99.5717 85.0477C101.518 85.0477 102.508 84.0639 102.508 82.9444C102.508 81.6553 100.63 81.3839 98.6158 80.9768C95.8845 80.4001 93.0508 79.5181 93.0508 76.2275C93.0508 73.7171 95.4748 71.3763 99.2644 71.4102C102.269 71.4102 104.488 72.5976 105.751 74.4973L102.883 76.0578C102.064 74.8705 100.698 74.192 99.2644 74.2259C97.4208 74.2259 96.499 75.108 96.499 76.1257C96.499 77.2791 97.9671 77.5844 100.289 78.0933C102.918 78.67 105.922 79.5181 105.922 82.8427C105.922 85.0477 103.976 87.9991 99.401 87.9652C96.0552 87.9991 93.6994 86.6761 92.3338 84.3014ZM115.174 80.6037L112.477 83.5551V87.6938H109.063V64.4219H112.477V79.6538L119.715 71.7495H123.88L117.598 78.5682L124.051 87.6938H120.193L115.174 80.6037ZM43.3415 71.4102C39.2788 71.4102 35.8647 74.0224 35.8647 78.3647V87.6938H39.347V78.8057C39.347 76.1935 40.8492 74.633 43.444 74.633C46.0387 74.633 47.3019 76.1935 47.3019 78.8057V87.6938H50.7501V78.3647C50.7843 74.0224 47.3702 71.4102 43.3415 71.4102Z" fill="#30444C"/>
</svg>
