<svg width="62" height="62" viewBox="0 0 62 62" fill="none" xmlns="http://www.w3.org/2000/svg">
<path d="M61.8463 48.2943C61.8463 55.78 55.8217 61.8458 48.3897 61.8458H13.4566C6.02462 61.8458 0 55.78 0 48.2943V13.551C0 6.06534 6.02462 -0.000488281 13.4566 -0.000488281H48.3897C55.8217 -0.000488281 61.8463 6.06534 61.8463 13.551V48.2943Z" fill="url(#paint0_radial)"/>
<path d="M51.6859 40.8935H49.999C49.999 42.2554 49.7291 43.5401 49.2279 44.7185C48.4856 46.4764 47.2422 47.9832 45.6709 49.0457C44.8901 49.5769 44.0226 49.9922 43.1069 50.282C42.1911 50.5718 41.2079 50.7263 40.1958 50.7263H21.6496C20.2904 50.7263 19.0084 50.4559 17.8324 49.9536C16.078 49.2099 14.5743 47.9639 13.5139 46.3895C12.9838 45.6071 12.5693 44.7378 12.2801 43.8202C11.9909 42.9026 11.8367 41.9174 11.8367 40.9032V21.0733C11.8367 19.7114 12.1066 18.4268 12.6078 17.2484C13.3501 15.4904 14.5935 13.9836 16.1648 12.9212C16.9456 12.3899 17.8131 11.9746 18.7288 11.6848C19.6446 11.395 20.6278 11.2405 21.6399 11.2405H40.1958C41.5549 11.2405 42.837 11.511 44.013 12.0132C45.7673 12.757 47.2711 14.003 48.3314 15.5774C48.8616 16.3597 49.2761 17.2291 49.5652 18.1467C49.8544 19.0643 50.0087 20.0495 50.0087 21.0637V40.8838H51.6859H53.3728V21.0733C53.3728 19.2574 53.0065 17.5092 52.3318 15.9348C51.3293 13.5586 49.6616 11.5496 47.5602 10.1201C46.5096 9.4053 45.3432 8.84508 44.1094 8.45872C42.8659 8.07236 41.5549 7.85986 40.1861 7.85986H21.6496C19.8374 7.85986 18.0926 8.2269 16.5214 8.90303C14.1501 9.90756 12.1451 11.5786 10.7185 13.6842C10.0052 14.737 9.44611 15.9058 9.06053 17.1421C8.67496 18.3881 8.46289 19.7017 8.46289 21.0733V40.8935C8.46289 42.7094 8.82919 44.4577 9.50394 46.0321C10.5064 48.4082 12.1741 50.4172 14.2754 51.8468C15.3261 52.5615 16.4925 53.1217 17.7263 53.5081C18.9698 53.8945 20.2808 54.107 21.6496 54.107H40.1958C42.008 54.107 43.7527 53.7399 45.3239 53.0638C47.6952 52.0593 49.7002 50.3883 51.1268 48.2826C51.8401 47.2298 52.3992 46.0611 52.7848 44.8247C53.1704 43.5787 53.3824 42.2651 53.3824 40.8935H51.6859Z" fill="white"/>
<path d="M41.1219 30.9189L39.0591 30.8706C39.0301 32.0104 38.7892 33.0922 38.3747 34.0774C37.7481 35.5552 36.7167 36.8012 35.4346 37.6802C34.7888 38.1148 34.0851 38.4626 33.3333 38.704C32.5814 38.9358 31.7717 39.0711 30.9331 39.0711C29.8052 39.0711 28.7449 38.8392 27.7713 38.4336C26.3158 37.8154 25.0723 36.7819 24.1951 35.4779C23.7613 34.8308 23.4143 34.116 23.1733 33.3433C22.9324 32.5802 22.807 31.7689 22.807 30.9189C22.807 29.8081 23.0288 28.7456 23.424 27.7701C24.0216 26.3116 25.0337 25.0463 26.2869 24.1673C26.9134 23.723 27.5978 23.3753 28.3304 23.1434C29.063 22.902 29.8342 22.7764 30.6439 22.7764C30.721 22.7764 30.7885 22.7764 30.8656 22.7764C32.3404 22.815 33.5742 23.0855 34.596 23.4912C35.3575 23.8002 36.0034 24.1866 36.5528 24.6502C36.9673 24.998 37.324 25.3747 37.6324 25.7997C38.0951 26.4275 38.4518 27.1519 38.6928 27.9633C38.9337 28.7746 39.0687 29.6729 39.0687 30.6484C39.0687 30.7257 39.0687 30.8127 39.0687 30.8899L41.1219 30.9189L43.1847 30.9672C43.1847 30.8609 43.1847 30.745 43.1847 30.6388C43.1847 29.0547 42.9341 27.5093 42.4136 26.0894C42.0183 25.0173 41.4785 24.0224 40.7845 23.1145C40.264 22.4383 39.6567 21.8202 38.9723 21.2793C37.9409 20.4679 36.7456 19.8208 35.4057 19.3764C34.0659 18.9321 32.591 18.681 30.9909 18.6327C30.8752 18.6327 30.7595 18.623 30.6439 18.623C28.9763 18.623 27.3858 18.9804 25.9398 19.6179C23.7806 20.5742 21.9684 22.1486 20.6864 24.1093C19.4043 26.0701 18.6621 28.4172 18.6621 30.9092C18.6621 32.5996 19.0091 34.2223 19.626 35.6904C20.5611 37.9023 22.113 39.7665 24.0698 41.0898C25.0434 41.7563 26.123 42.2778 27.2797 42.6352C28.4364 42.9926 29.6607 43.1858 30.9234 43.1858C32.6103 43.1858 34.2201 42.8381 35.6853 42.2199C37.8734 41.283 39.7242 39.7279 41.0351 37.7671C42.3461 35.816 43.1269 33.4592 43.1847 30.9479L41.1219 30.9189Z" fill="white"/>
<path d="M46.3371 18.2925C46.3371 19.8766 45.0551 21.1613 43.4742 21.1613C41.8934 21.1613 40.6113 19.8766 40.6113 18.2925C40.6113 16.7085 41.8934 15.4238 43.4742 15.4238C45.0551 15.4238 46.3371 16.7085 46.3371 18.2925Z" fill="white"/>
<defs>
<radialGradient id="paint0_radial" cx="0" cy="0" r="1" gradientUnits="userSpaceOnUse" gradientTransform="translate(17.9743 61.6896) rotate(-71.0987) scale(62.4604 62.3604)">
<stop stop-color="#FFD776"/>
<stop offset="0.2463" stop-color="#F3A554"/>
<stop offset="0.3793" stop-color="#F15C3C"/>
<stop offset="0.5394" stop-color="#D94867"/>
<stop offset="0.6995" stop-color="#C32F87"/>
<stop offset="0.9122" stop-color="#7D63A7"/>
<stop offset="0.9852" stop-color="#5C6CB3"/>
<stop offset="1" stop-color="#5C6CB3"/>
</radialGradient>
</defs>
</svg>
