<svg width="153" height="39" viewBox="0 0 153 39" fill="none" xmlns="http://www.w3.org/2000/svg">
<path fill-rule="evenodd" clip-rule="evenodd" d="M8.13517 24.3802C8.13517 26.6244 6.3255 28.4356 4.08321 28.4356C1.84092 28.4356 0.03125 26.6183 0.03125 24.3802C0.03125 22.142 1.84092 20.3247 4.08321 20.3247H8.13517V24.3802ZM10.1581 24.3802C10.1581 22.1359 11.9678 20.3247 14.2101 20.3247C16.4524 20.3247 18.262 22.1359 18.262 24.3802V34.5158C18.262 36.76 16.4524 38.5712 14.2101 38.5712C11.9678 38.5712 10.1581 36.76 10.1581 34.5158V24.3802Z" fill="#E01E5A"/>
<path fill-rule="evenodd" clip-rule="evenodd" d="M24.3664 30.4603C26.6087 30.4603 28.4184 32.2716 28.4184 34.5158C28.4184 36.76 26.6087 38.5712 24.3664 38.5712C22.1241 38.5712 20.3145 36.76 20.3145 34.5158V30.4603H24.3664ZM24.3664 28.4356C22.1241 28.4356 20.3145 26.6244 20.3145 24.3802C20.3145 22.1359 22.1241 20.3247 24.3664 20.3247H34.5237C36.766 20.3247 38.5757 22.1359 38.5757 24.3802C38.5757 26.6244 36.766 28.4356 34.5237 28.4356H24.3664Z" fill="#ECB22E"/>
<path fill-rule="evenodd" clip-rule="evenodd" d="M48.7344 30.368L50.6354 25.9467C52.6888 27.4835 55.4247 28.2824 58.124 28.2824C60.1164 28.2824 61.3777 27.514 61.3777 26.3492C61.3472 23.0926 49.4412 25.6418 49.3498 17.4759C49.3193 13.329 52.9996 10.1334 58.2154 10.1334C61.3168 10.1334 64.4121 10.9018 66.6239 12.6521L64.8447 17.1649C62.8218 15.872 60.3053 14.9512 57.9107 14.9512C56.2838 14.9512 55.2114 15.7196 55.2114 16.7014C55.2419 19.897 67.2393 18.1468 67.3612 25.9467C67.3612 30.1851 63.7723 33.1672 58.6175 33.1672C54.8397 33.1611 51.3727 32.2708 48.7344 30.368ZM121.737 24.3489C120.786 26.0077 119.007 27.142 116.947 27.142C113.907 27.142 111.458 24.6843 111.458 21.6473C111.458 18.6102 113.913 16.1526 116.947 16.1526C119.001 16.1526 120.786 17.2869 121.737 18.9457L126.983 16.0306C125.021 12.5301 121.243 10.1334 116.947 10.1334C110.592 10.1334 105.437 15.2927 105.437 21.6534C105.437 28.014 110.592 33.1733 116.947 33.1733C121.274 33.1733 125.021 30.8071 126.983 27.2761L121.737 24.3489ZM69.9996 0.577148H76.568V32.7342H69.9996V0.577148ZM129.56 0.577148V32.7342H136.129V23.0865L143.922 32.7342H152.331L142.417 21.2753L151.593 10.5847H143.55L136.123 19.4579V0.577148H129.56Z" fill="black"/>
<path d="M96.0839 24.4198C95.1334 25.9871 93.1714 27.1519 90.9596 27.1519C87.9191 27.1519 85.4696 24.6942 85.4696 21.6572C85.4696 18.6201 87.9252 16.1625 90.9596 16.1625C93.1714 16.1625 95.1334 17.3883 96.0839 18.986V24.4198ZM96.0839 10.6007V13.2108C95.0115 11.3996 92.3427 10.1372 89.546 10.1372C83.7757 10.1372 79.2363 15.2355 79.2363 21.6267C79.2363 28.0178 83.7757 33.1771 89.546 33.1771C92.3366 33.1771 95.0055 31.9209 96.0839 30.1035V32.7136H102.652V10.6007H96.0839Z" fill="black"/>
<path fill-rule="evenodd" clip-rule="evenodd" d="M14.2093 8.11191C11.967 8.11191 10.1573 6.30067 10.1573 4.05644C10.1573 1.81221 11.967 0.000976562 14.2093 0.000976562C16.4516 0.000976562 18.2612 1.81221 18.2612 4.05644V8.11191H14.2093ZM14.2093 10.1671C16.4516 10.1671 18.2612 11.9783 18.2612 14.2225C18.2612 16.4668 16.4516 18.278 14.2093 18.278H4.05196C1.80967 18.278 0 16.4607 0 14.2225C0 11.9844 1.80967 10.1671 4.05196 10.1671H14.2093Z" fill="#36C5F0"/>
<path fill-rule="evenodd" clip-rule="evenodd" d="M30.4413 14.2216C30.4413 11.9773 32.251 10.1661 34.4933 10.1661C36.7355 10.1661 38.5452 11.9773 38.5452 14.2216C38.5452 16.4658 36.7355 18.277 34.4933 18.277H30.4413V14.2216ZM28.4184 14.2216C28.4184 16.4658 26.6087 18.277 24.3664 18.277C22.1241 18.277 20.3145 16.4658 20.3145 14.2216V4.05547C20.3145 1.81124 22.1241 0 24.3664 0C26.6087 0 28.4184 1.81124 28.4184 4.05547V14.2216Z" fill="#2EB67D"/>
</svg>
