<svg width="198" height="52" viewBox="0 0 198 52" fill="none" xmlns="http://www.w3.org/2000/svg">
<path d="M67.4286 33.5998V18.9156C67.4286 18.012 68.1628 17.2778 69.0665 17.2778C69.9701 17.2778 70.7043 18.012 70.7043 18.9156V33.5998C70.7043 34.5035 69.9701 35.2377 69.0665 35.2377C68.2193 35.2377 67.4286 34.5035 67.4286 33.5998ZM86.1792 34.2211L79.063 22.8691V33.5998C79.063 34.5035 78.3288 35.2377 77.4252 35.2377C76.5215 35.2377 75.7873 34.5035 75.7873 33.5998V19.3674C75.7873 18.1814 76.7474 17.1648 77.9899 17.1648H78.1029C78.8371 17.1648 79.5713 17.5602 79.9667 18.1814L87.0264 29.364V18.8027C87.0264 17.899 87.7606 17.1648 88.6642 17.1648C89.5679 17.1648 90.3021 17.899 90.3021 18.8027V33.035C90.3021 34.2211 89.3419 35.2377 88.0994 35.2377C87.3088 35.2377 86.5745 34.8988 86.1792 34.2211ZM101.711 20.3276V33.7692C101.711 34.6164 101.033 35.2941 100.186 35.2941H99.9597C99.1126 35.2941 98.4349 34.6164 98.4349 33.7692V20.3276H94.6508C93.8037 20.3276 93.126 19.6498 93.126 18.8027C93.126 17.9555 93.8037 17.2778 94.6508 17.2778H105.551C106.398 17.2778 107.076 17.9555 107.076 18.8027C107.076 19.6498 106.398 20.3276 105.551 20.3276H101.711ZM109.674 33.7692V18.6897C109.674 17.899 110.352 17.2213 111.142 17.2213H121.026C121.817 17.2213 122.494 17.899 122.494 18.6897C122.494 19.4804 121.817 20.1581 121.026 20.1581H112.95V24.3375H119.896C120.687 24.3375 121.365 25.0152 121.365 25.8059C121.365 26.5966 120.687 27.2743 119.896 27.2743H112.95V32.1879H121.026C121.817 32.1879 122.494 32.8656 122.494 33.6563C122.494 34.447 121.817 35.1247 121.026 35.1247H111.142C110.352 35.2377 109.674 34.6164 109.674 33.7692ZM136.331 34.2775L133.733 28.4603H129.723V33.6563C129.723 34.5599 128.989 35.2941 128.086 35.2941H128.029C127.126 35.2941 126.391 34.5599 126.391 33.6563V18.9156C126.391 18.012 127.126 17.2778 128.029 17.2778H134.016C138.308 17.2778 140.285 19.9887 140.285 22.8691C140.285 25.2976 138.986 27.1614 137.009 27.8956L139.268 32.9786C139.72 34.0516 138.986 35.2377 137.8 35.2377C137.179 35.2377 136.557 34.8988 136.331 34.2775ZM134.072 20.1017H129.78V25.467H134.129C135.992 25.467 137.066 24.5069 137.066 22.8126C137.009 21.4006 135.936 20.1017 134.072 20.1017ZM155.873 33.4304C154.517 34.7858 152.653 35.5765 150.733 35.5765C148.813 35.5765 147.006 34.9553 145.65 33.5433C143.673 31.5666 143.391 29.1946 143.391 26.2577C143.391 23.3209 143.673 20.8923 145.65 18.9721C147.006 17.6166 148.813 16.9389 150.733 16.9389C152.653 16.9389 154.517 17.6731 155.873 19.0286C156.324 19.5369 156.72 20.0452 157.002 20.6664C157.51 21.7395 156.72 22.9255 155.534 22.9255C154.856 22.9255 154.291 22.5302 154.009 21.9089C153.896 21.5701 153.67 21.2877 153.444 21.0053C152.879 20.2711 151.863 19.8757 150.733 19.8757C149.717 19.8757 148.7 20.3276 147.966 21.0618C146.723 22.3608 146.723 24.5634 146.723 26.2577C146.723 27.8956 146.723 30.1547 147.966 31.4537C148.7 32.1879 149.717 32.6397 150.733 32.6397C151.863 32.6397 152.879 32.2443 153.444 31.5101C153.67 31.2278 153.896 30.8889 154.009 30.55C154.235 29.9288 154.856 29.5334 155.534 29.5334C156.72 29.5334 157.51 30.7195 157.002 31.7925C156.72 32.4138 156.324 32.9786 155.873 33.4304ZM173.437 33.5433C172.082 34.8988 170.161 35.5765 168.241 35.5765C166.321 35.5765 164.457 34.8988 163.045 33.5433C161.069 31.5666 160.786 29.1946 160.786 26.2577C160.786 23.3209 161.125 20.8923 163.045 18.9721C164.401 17.6166 166.321 16.9389 168.241 16.9389C170.161 16.9389 172.025 17.6166 173.437 18.9721C175.414 20.9488 175.696 23.3209 175.696 26.2577C175.753 29.1946 175.414 31.6231 173.437 33.5433ZM171.122 21.1183C170.387 20.384 169.314 19.9322 168.298 19.9322C167.281 19.9322 166.152 20.384 165.474 21.1183C164.231 22.4172 164.175 24.6199 164.175 26.3142C164.175 27.952 164.231 30.1547 165.474 31.4537C166.208 32.1879 167.281 32.6397 168.298 32.6397C169.314 32.6397 170.444 32.1879 171.122 31.4537C172.364 30.1547 172.421 27.952 172.421 26.3142C172.421 24.6199 172.364 22.3608 171.122 21.1183ZM194.729 33.6563V22.4172L190.493 33.8822C190.268 34.5599 189.59 35.0118 188.856 35.0118C188.121 35.0118 187.5 34.5599 187.218 33.8822L182.982 22.2478V33.6563C182.982 34.5599 182.248 35.2377 181.401 35.2377C180.497 35.2377 179.819 34.5035 179.819 33.6563V19.7063C179.819 18.3508 180.949 17.2213 182.304 17.2213H182.53C183.547 17.2213 184.507 17.8425 184.846 18.8591L188.969 30.0417L193.148 18.8591C193.487 17.899 194.447 17.2213 195.463 17.2213C196.819 17.2213 197.948 18.3508 197.948 19.7063V33.6563C197.948 34.5599 197.214 35.2377 196.367 35.2377C195.407 35.2377 194.729 34.5599 194.729 33.6563ZM44.5552 0.842773H6.43276C2.87466 0.842773 0.0507812 3.66666 0.0507812 7.16827V45.2907C0.0507812 48.8488 2.87466 51.6727 6.43276 51.6727H44.5552C48.0568 51.6727 50.8807 48.8488 50.8807 45.3472V7.22475C50.8807 3.66666 48.0568 0.842773 44.5552 0.842773ZM32.243 10.1616C32.243 9.20147 32.9773 8.46726 33.9374 8.46726C34.8975 8.46726 35.6317 9.20147 35.6317 10.1616V32.8091C35.6317 33.7692 34.8975 34.5035 33.9374 34.5035C32.9773 34.5035 32.243 33.7692 32.243 32.8091V10.1616ZM23.7714 9.31442C23.7714 8.3543 24.5056 7.62009 25.4657 7.62009C26.4258 7.62009 27.1601 8.3543 27.1601 9.31442V33.8822C27.1601 34.8423 26.4258 35.5765 25.4657 35.5765C24.5056 35.5765 23.7714 34.8423 23.7714 33.8822V9.31442ZM15.2997 10.1616C15.2997 9.20147 16.034 8.46726 16.9941 8.46726C17.9542 8.46726 18.6884 9.20147 18.6884 10.1616V32.8091C18.6884 33.7692 17.9542 34.5035 16.9941 34.5035C16.034 34.5035 15.2997 33.7692 15.2997 32.8091V10.1616ZM6.8281 13.5502C6.8281 12.5901 7.56231 11.8559 8.52243 11.8559C9.48255 11.8559 10.2168 12.5901 10.2168 13.5502V28.7992C10.2168 29.7593 9.48255 30.4935 8.52243 30.4935C7.56231 30.4935 6.8281 29.7593 6.8281 28.7992V13.5502ZM43.5386 39.417C43.2562 39.6429 36.9872 44.8953 25.4657 44.8953C13.9443 44.8953 7.67526 39.6429 7.39288 39.417C6.65867 38.7958 6.60219 37.7227 7.22344 37.0449C7.8447 36.3107 8.91777 36.2543 9.5955 36.8755C9.70846 36.8755 15.2997 41.5067 25.4657 41.5067C35.7447 41.5067 41.2795 36.8755 41.2795 36.819C42.0137 36.1978 43.0868 36.3107 43.6515 36.9885C44.3293 37.7227 44.2163 38.7958 43.5386 39.417ZM44.1034 28.7992C44.1034 29.7593 43.3691 30.4935 42.409 30.4935C41.4489 30.4935 40.7147 29.7593 40.7147 28.7992V13.5502C40.7147 12.5901 41.4489 11.8559 42.409 11.8559C43.3691 11.8559 44.1034 12.5901 44.1034 13.5502V28.7992Z" fill="#1F8DED"/>
</svg>
