<svg width="124" height="87" viewBox="0 0 124 87" fill="none" xmlns="http://www.w3.org/2000/svg">
<path d="M51.2312 9.39436C55.2017 5.25887 60.7294 2.69393 66.8427 2.69393C74.9695 2.69393 82.0596 7.22387 85.8355 13.9487C89.1168 12.4832 92.7487 11.668 96.5699 11.668C111.227 11.668 123.111 23.6504 123.111 38.4306C123.111 53.2126 111.227 65.195 96.5699 65.195C94.8143 65.1961 93.063 65.0216 91.3421 64.6743C88.0171 70.6032 81.6809 74.6091 74.4083 74.6091C71.3638 74.6091 68.4842 73.9062 65.9203 72.6562C62.5496 80.5819 54.6966 86.1391 45.5439 86.1391C36.0125 86.1391 27.8893 80.1103 24.7712 71.6551C23.4086 71.9444 21.9969 72.0952 20.5482 72.0952C9.20002 72.0953 0 62.8039 0 51.3405C0 43.6585 4.13351 36.951 10.275 33.3625C9.01061 30.4542 8.30731 27.2442 8.30731 23.8694C8.30731 10.6863 19.0137 -0.000488281 32.2192 -0.000488281C39.9724 -0.000488281 46.8627 3.6845 51.2312 9.39436Z" fill="#00A1E0"/>
<path d="M17.8325 44.6703C17.7554 44.8719 17.8606 44.9141 17.8851 44.9491C18.1166 45.1173 18.3517 45.2384 18.5884 45.3733C19.844 46.0394 21.0297 46.2339 22.2695 46.2339C24.7948 46.2339 26.3626 44.8912 26.3626 42.7295V42.6875C26.3626 40.6889 24.5932 39.9632 22.9324 39.439L22.7167 39.3689C21.4646 38.9622 20.3843 38.6117 20.3843 37.7877V37.7439C20.3843 37.0392 21.0156 36.5202 21.9942 36.5202C23.0815 36.5202 24.3723 36.8813 25.2035 37.3406C25.2035 37.3406 25.4472 37.4984 25.5367 37.2618C25.5858 37.1355 26.0067 36.003 26.0506 35.8803C26.0979 35.747 26.0137 35.6488 25.9278 35.5962C24.9791 35.0195 23.6672 34.625 22.31 34.625L22.0574 34.6267C19.7461 34.6267 18.1327 36.0222 18.1327 38.0225V38.0646C18.1327 40.1735 19.9127 40.8572 21.5805 41.3341L21.8488 41.4165C23.0641 41.7899 24.1111 42.1106 24.1111 42.9662V43.0083C24.1111 43.7902 23.4308 44.3722 22.3329 44.3722C21.9067 44.3722 20.5476 44.3634 19.0797 43.4359C18.9025 43.3324 18.7991 43.2572 18.6624 43.1748C18.5905 43.1292 18.4098 43.0502 18.331 43.2887L17.8325 44.6703ZM54.8024 44.6703C54.7253 44.8719 54.8305 44.9141 54.855 44.9491C55.0864 45.1173 55.3216 45.2384 55.5582 45.3733C56.8138 46.0394 57.9996 46.2339 59.2393 46.2339C61.7646 46.2339 63.3325 44.8912 63.3325 42.7295V42.6875C63.3325 40.6889 61.563 39.9632 59.9022 39.439L59.6865 39.3689C58.4343 38.9622 57.3539 38.6117 57.3539 37.7877V37.7439C57.3539 37.0392 57.9853 36.5202 58.9639 36.5202C60.0512 36.5202 61.3419 36.8813 62.1733 37.3406C62.1733 37.3406 62.417 37.4984 62.5064 37.2618C62.5554 37.1355 62.9764 36.003 63.0202 35.8803C63.0677 35.747 62.9834 35.6488 62.8975 35.5962C61.9487 35.0195 60.6369 34.625 59.2796 34.625L59.027 34.6267C56.7156 34.6267 55.1022 36.0222 55.1022 38.0225V38.0646C55.1022 40.1735 56.8822 40.8572 58.5501 41.3341L58.8183 41.4165C60.0337 41.7899 61.0825 42.1106 61.0825 42.9662V43.0083C61.0825 43.7902 60.4003 44.3722 59.3024 44.3722C58.8764 44.3722 57.5172 44.3634 56.0494 43.4359C55.8722 43.3324 55.7671 43.2606 55.6339 43.1748C55.5881 43.1449 55.3742 43.0625 55.3005 43.2887L54.8024 44.6703ZM80.0408 40.4362C80.0408 41.6582 79.8128 42.6205 79.3639 43.3008C78.9201 43.974 78.2485 44.3018 77.3122 44.3018C76.374 44.3018 75.7058 43.9757 75.2691 43.3008C74.827 42.6224 74.6027 41.6582 74.6027 40.4362C74.6027 39.2162 74.827 38.2554 75.2691 37.5822C75.7058 36.9161 76.374 36.5917 77.3122 36.5917C78.2486 36.5917 78.9202 36.9161 79.3657 37.5822C79.8129 38.2553 80.0408 39.216 80.0408 40.4362ZM82.1488 38.1713C81.9418 37.4717 81.6192 36.8546 81.1896 36.341C80.7599 35.8256 80.2163 35.4119 79.5708 35.1104C78.9271 34.8106 78.1662 34.6581 77.3122 34.6581C76.4563 34.6581 75.6952 34.8106 75.0516 35.1104C74.4062 35.4119 73.8626 35.8257 73.4312 36.341C73.0033 36.8565 72.6805 37.4735 72.4719 38.1713C72.2667 38.8672 72.1632 39.628 72.1632 40.4362C72.1632 41.2445 72.2667 42.007 72.4719 42.7012C72.6805 43.399 73.0016 44.0161 73.433 44.5314C73.8626 45.0469 74.408 45.4588 75.0517 45.7515C75.6969 46.0443 76.4563 46.1933 77.3123 46.1933C78.1663 46.1933 78.9257 46.0443 79.5709 45.7515C80.2146 45.4588 80.7599 45.0468 81.1897 44.5314C81.6193 44.0177 81.9419 43.4007 82.149 42.7012C82.356 42.0053 82.4594 41.2426 82.4594 40.4362C82.4594 39.6298 82.3558 38.8672 82.1488 38.1713ZM99.4591 43.9755C99.389 43.7704 99.1908 43.8475 99.1908 43.8475C98.884 43.965 98.5577 44.0737 98.2105 44.128C97.8579 44.1822 97.4704 44.2104 97.0547 44.2104C96.0342 44.2104 95.2239 43.9071 94.6435 43.3076C94.0612 42.708 93.735 41.7386 93.7385 40.4272C93.7421 39.2334 94.0296 38.3357 94.547 37.6522C95.0609 36.972 95.8431 36.623 96.8865 36.623C97.7564 36.623 98.4193 36.7229 99.1136 36.9421C99.1136 36.9421 99.2802 37.0139 99.3591 36.7966C99.5432 36.2846 99.68 35.9183 99.8764 35.3555C99.9326 35.196 99.7958 35.1276 99.7466 35.1083C99.473 35.0013 98.8277 34.8279 98.3402 34.7542C97.8842 34.6841 97.3511 34.6473 96.7583 34.6473C95.8725 34.6473 95.0835 34.7981 94.4084 35.0997C93.7349 35.3994 93.1632 35.813 92.7108 36.3286C92.2583 36.844 91.9146 37.461 91.6849 38.1587C91.4569 38.8546 91.3412 39.619 91.3412 40.4272C91.3412 42.1751 91.813 43.5879 92.7442 44.6224C93.6771 45.6602 95.0784 46.1879 96.9058 46.1879C97.9861 46.1879 99.0945 45.9688 99.8907 45.6549C99.8907 45.6549 100.043 45.5813 99.9766 45.4044L99.4591 43.9755ZM103.147 39.2657C103.247 38.5873 103.435 38.0227 103.724 37.5828C104.161 36.9149 104.827 36.5485 105.764 36.5485C106.701 36.5485 107.32 36.9166 107.763 37.5828C108.058 38.0227 108.186 38.6119 108.237 39.2657H103.147ZM110.245 37.7737C110.066 37.0988 109.622 36.4168 109.331 36.1048C108.871 35.6104 108.423 35.2651 107.977 35.0722C107.395 34.8232 106.697 34.6585 105.932 34.6585C105.041 34.6585 104.233 34.8076 103.577 35.116C102.92 35.4246 102.367 35.8454 101.934 36.3696C101.501 36.8919 101.175 37.5143 100.967 38.2208C100.759 38.9238 100.654 39.69 100.654 40.498C100.654 41.3203 100.762 42.0864 100.978 42.7752C101.196 43.4695 101.543 44.0813 102.013 44.5879C102.481 45.0981 103.084 45.4979 103.807 45.7764C104.524 46.0535 105.396 46.1972 106.397 46.1954C108.458 46.1884 109.543 45.7291 109.99 45.4819C110.069 45.4381 110.145 45.361 110.05 45.1401L109.584 43.8339C109.514 43.6394 109.315 43.7113 109.315 43.7113C108.805 43.9006 108.079 44.2407 106.386 44.2373C105.28 44.2355 104.459 43.9095 103.945 43.3992C103.417 42.8769 103.16 42.1089 103.114 41.0256L110.25 41.0326C110.25 41.0326 110.437 41.0292 110.457 40.8467C110.464 40.7698 110.702 39.3814 110.245 37.7737ZM45.9996 39.2657C46.1012 38.5873 46.2872 38.0227 46.5765 37.5828C47.0132 36.9149 47.6796 36.5485 48.6161 36.5485C49.5525 36.5485 50.1716 36.9166 50.617 37.5828C50.9098 38.0227 51.0378 38.6119 51.0887 39.2657H45.9996ZM53.095 37.7737C52.9162 37.0988 52.4743 36.4168 52.1832 36.1048C51.7236 35.6104 51.2747 35.2651 50.8293 35.0722C50.2471 34.8232 49.5492 34.6585 48.7845 34.6585C47.8954 34.6585 47.0851 34.8076 46.4293 35.116C45.7717 35.4246 45.2192 35.8454 44.7861 36.3696C44.3529 36.8919 44.0267 37.5143 43.8198 38.2208C43.6129 38.9238 43.5059 39.69 43.5059 40.498C43.5059 41.3203 43.6146 42.0864 43.8304 42.7752C44.0479 43.4695 44.3952 44.0813 44.8651 44.5879C45.3334 45.0981 45.9366 45.4979 46.6591 45.7764C47.3764 46.0535 48.248 46.1972 49.2494 46.1954C51.3099 46.1884 52.3955 45.7291 52.8427 45.4819C52.9217 45.4381 52.997 45.361 52.9024 45.1401L52.4377 43.8339C52.3657 43.6394 52.1677 43.7113 52.1677 43.7113C51.6573 43.9006 50.933 44.2407 49.2372 44.2373C48.1324 44.2355 47.3116 43.9095 46.7977 43.3992C46.2698 42.8769 46.0121 42.1089 45.9664 41.0256L53.1023 41.0326C53.1023 41.0326 53.2898 41.0292 53.3092 40.8467C53.3159 40.7698 53.5544 39.3814 53.095 37.7737ZM30.5755 43.9364C30.2966 43.7137 30.258 43.6577 30.1634 43.5139C30.023 43.2947 29.9512 42.9827 29.9512 42.5865C29.9512 41.9589 30.1581 41.5084 30.5878 41.2051C30.5826 41.2069 31.2016 40.6704 32.6572 40.6896C33.6795 40.7037 34.5932 40.8545 34.5932 40.8545V44.0977H34.5949C34.5949 44.0977 33.6883 44.2922 32.6676 44.3536C31.2156 44.4413 30.5702 43.9347 30.5755 43.9364ZM33.4147 38.9243C33.1253 38.9033 32.7499 38.8909 32.301 38.8909C31.689 38.8909 31.098 38.9681 30.5438 39.1171C29.9862 39.2661 29.4846 39.4994 29.0532 39.8077C28.6224 40.1151 28.2683 40.5176 28.0185 40.9841C27.766 41.4539 27.638 42.0079 27.638 42.6285C27.638 43.2596 27.7467 43.8083 27.9642 44.2572C28.1817 44.7077 28.4955 45.0828 28.8953 45.3722C29.2916 45.6615 29.781 45.8735 30.3491 46.0015C30.9086 46.1295 31.5434 46.1943 32.2379 46.1943C32.9692 46.1943 33.6987 46.1348 34.4055 46.0137C35.1052 45.8944 35.9645 45.7208 36.203 45.6666C36.3702 45.6264 36.5368 45.5837 36.7028 45.5386C36.88 45.4949 36.866 45.3054 36.866 45.3054L36.8624 38.7823C36.8624 37.3517 36.4801 36.291 35.7278 35.6337C34.9789 34.9781 33.8758 34.6466 32.4501 34.6466C31.9152 34.6466 31.0541 34.7203 30.5385 34.8237C30.5385 34.8237 28.9795 35.1253 28.3376 35.6267C28.3376 35.6267 28.1973 35.7144 28.2745 35.9107L28.7796 37.2677C28.8427 37.443 29.0129 37.3833 29.0129 37.3833C29.0129 37.3833 29.0672 37.3623 29.1304 37.3255C30.5036 36.5787 32.2398 36.6015 32.2398 36.6015C33.0114 36.6015 33.6042 36.7557 34.004 37.0624C34.3933 37.3604 34.5914 37.8109 34.5914 38.7611V39.0627C33.9776 38.9751 33.4147 38.9243 33.4147 38.9243ZM90.9684 35.2488C91.0227 35.0875 90.9088 35.0103 90.8613 34.9928C90.7404 34.9455 90.1336 34.8175 89.6654 34.7877C88.7693 34.7334 88.2713 34.8842 87.8257 35.084C87.3838 35.2838 86.8928 35.6063 86.6191 35.9728V35.1051C86.6191 34.9841 86.5332 34.8876 86.414 34.8876H84.5848C84.4656 34.8876 84.3797 34.984 84.3797 35.1051V45.7445C84.3797 45.8637 84.478 45.9619 84.5971 45.9619H86.4719C86.5293 45.9616 86.5842 45.9385 86.6247 45.8978C86.6651 45.857 86.6877 45.8019 86.6875 45.7445V40.4292C86.6875 39.7157 86.7665 39.004 86.9244 38.557C87.0787 38.1151 87.2892 37.761 87.5487 37.5068C87.81 37.2544 88.1063 37.0773 88.4308 36.9774C88.7622 36.8757 89.1287 36.8424 89.3883 36.8424C89.7618 36.8424 90.1722 36.9388 90.1722 36.9388C90.3089 36.9545 90.3862 36.8704 90.4316 36.746C90.5545 36.4199 90.9018 35.4434 90.9684 35.2488Z" fill="white"/>
<path d="M73.3704 30.3186C73.1424 30.2485 72.9355 30.2011 72.6654 30.1503C72.3917 30.1013 72.0656 30.0767 71.6957 30.0767C70.4048 30.0767 69.3876 30.4413 68.674 31.16C67.9637 31.8754 67.4813 32.964 67.2393 34.3963L67.1516 34.8784H65.5313C65.5313 34.8784 65.3348 34.8713 65.2927 35.0853L65.028 36.5701C65.0086 36.7104 65.0701 36.7998 65.2594 36.7998H66.8361L65.2366 45.7265C65.112 46.4453 64.9682 47.0361 64.8086 47.4848C64.6525 47.9267 64.5001 48.2579 64.3106 48.4999C64.1283 48.7313 63.9564 48.9031 63.6581 49.003C63.4126 49.0854 63.1286 49.1239 62.8182 49.1239C62.6463 49.1239 62.4167 49.0957 62.2465 49.0607C62.0781 49.0274 61.9887 48.9906 61.8606 48.9362C61.8606 48.9362 61.6765 48.8662 61.6028 49.0503C61.5449 49.2028 61.1241 50.3579 61.0732 50.5001C61.0241 50.642 61.0942 50.7525 61.1836 50.7858C61.3941 50.8594 61.5501 50.9085 61.836 50.9768C62.2324 51.0698 62.5673 51.075 62.8811 51.075C63.537 51.075 64.1368 50.9821 64.6332 50.8034C65.1313 50.6228 65.566 50.3089 65.9519 49.8848C66.3675 49.4254 66.6288 48.9451 66.878 48.2877C67.1252 47.639 67.3375 46.8326 67.5057 45.893L69.1139 36.7998H71.4639C71.4639 36.7998 71.6619 36.8068 71.7025 36.5912L71.9689 35.1081C71.9865 34.9662 71.9269 34.8785 71.7356 34.8785H69.4541C69.4664 34.8277 69.5698 34.0247 69.8312 33.2693C69.9434 32.9485 70.1538 32.6872 70.331 32.5083C70.5065 32.333 70.7081 32.2086 70.9292 32.1366C71.1553 32.063 71.4132 32.028 71.6956 32.028C71.9095 32.028 72.1216 32.0525 72.2812 32.0858C72.5021 32.1332 72.588 32.1577 72.6461 32.1753C72.8793 32.2454 72.9108 32.177 72.9565 32.0649L73.5019 30.5678C73.558 30.4062 73.4195 30.3378 73.3704 30.3186ZM41.4923 45.7458C41.4923 45.8651 41.4064 45.9615 41.2871 45.9615H39.3949C39.2756 45.9615 39.1914 45.8651 39.1914 45.7458V30.522C39.1914 30.4029 39.2756 30.3064 39.3949 30.3064H41.2871C41.4064 30.3064 41.4923 30.4029 41.4923 30.522V45.7458Z" fill="white"/>
</svg>
