<svg width="260" height="75" viewBox="0 0 260 75" fill="none" xmlns="http://www.w3.org/2000/svg">
<path d="M99.6154 12.3085H90.8972V63.3267H99.6154V12.3085Z" fill="white"/>
<path d="M106.837 63.3267H115.219V39.064C116.141 35.408 119.411 33.1645 123.015 33.1645C127.794 33.1645 130.057 36.1558 130.057 40.7258V63.3267H138.44V39.3133C138.44 31.1703 133.745 25.6032 125.279 25.6032C120.92 25.6032 117.231 27.5974 115.219 29.9239V26.4341H106.837V63.3267Z" fill="white"/>
<path d="M166.86 9.48343C165.351 8.81869 163.758 8.48633 161.327 8.48633C154.369 8.48633 149.088 12.8071 149.088 20.7008V26.4341H142.633V33.3307H149.088V63.3267H157.303V33.3307H165.435V26.4341H157.303V21.2824C157.303 17.6264 159.399 15.6322 162.752 15.6322C164.093 15.6322 165.602 15.9646 166.86 16.7955V9.48343Z" fill="white"/>
<path d="M180.053 9.31724H171.67V63.3267H180.053V9.31724Z" fill="white"/>
<path d="M218.491 26.4341H210.109V50.6968C209.187 54.3528 206.001 56.5963 202.396 56.5963C197.618 56.5963 195.439 53.605 195.439 49.035V26.4341H187.056V50.4475C187.056 58.5905 191.666 64.1576 200.133 64.1576C204.492 64.1576 208.097 62.1634 210.109 59.8369V63.3267H218.491V26.4341Z" fill="white"/>
<path d="M258.994 26.4341H250.025L241.642 38.0669L233.51 26.4341H224.038L236.864 44.3818L223.032 63.3267H232.002L241.306 50.2813L250.528 63.3267H260L246.085 44.0495L258.994 26.4341Z" fill="white"/>
<path d="M48.5498 56.3197C45.1282 58.5391 41.0593 59.9263 36.6204 59.9263C32.1816 59.9263 28.1127 58.6316 24.691 56.3197L13.9639 67.1394C20.1597 72.0406 28.1127 74.9998 36.6204 74.9998C45.1282 74.9998 53.0811 72.0406 59.277 67.1394L48.5498 56.3197ZM15.0736 38.3794C15.0736 33.9406 16.3682 29.8716 18.6801 26.45L7.86045 15.6304C2.95923 21.9187 0 29.7792 0 38.3794C0 46.9797 2.95923 54.8401 7.86045 61.036L18.6801 50.2163C16.3682 46.7947 15.0736 42.7258 15.0736 38.3794ZM36.7129 1.6665C28.1127 1.6665 20.2522 4.62573 14.0563 9.52695L24.876 20.3466C28.2976 18.1272 32.3665 16.7401 36.8054 16.7401C41.2442 16.7401 45.3132 18.0347 48.7348 20.3466L59.3695 9.52695C53.1736 4.62573 45.2207 1.6665 36.7129 1.6665ZM65.4729 15.6304L54.6532 26.45C56.8726 29.8716 58.2598 33.9406 58.2598 38.3794C58.2598 42.7258 56.9651 46.8872 54.6532 50.3088L65.4729 61.1285C70.3741 54.9326 73.3333 46.9797 73.3333 38.4719C73.3333 29.9641 70.3741 21.9187 65.4729 15.6304Z" fill="#FF8947"/>
</svg>
