<svg width="278" height="278" viewBox="0 0 278 278" fill="none" xmlns="http://www.w3.org/2000/svg">
<path d="M184.048 207.185C171.077 215.599 155.652 220.857 138.825 220.857C121.997 220.857 106.573 215.95 93.6015 207.185L52.9357 248.202C76.4237 266.782 106.573 278 138.825 278C171.077 278 201.226 266.782 224.714 248.202L184.048 207.185ZM57.1425 139.175C57.1425 122.348 62.0504 106.923 70.8146 93.9521L29.7982 52.9357C11.2182 76.7743 0 106.573 0 139.175C0 171.778 11.2182 201.576 29.7982 225.064L70.8146 184.048C62.0504 171.077 57.1425 155.652 57.1425 139.175ZM139.175 0C106.573 0 76.7743 11.2182 53.2863 29.7982L94.3026 70.8146C107.274 62.401 122.699 57.1425 139.526 57.1425C156.353 57.1425 171.778 62.0504 184.749 70.8146L225.064 29.7982C201.576 11.2182 171.427 0 139.175 0ZM248.202 52.9357L207.185 93.9521C215.599 106.923 220.857 122.348 220.857 139.175C220.857 155.652 215.95 171.427 207.185 184.398L248.202 225.415C266.782 201.927 278 171.778 278 139.526C278 107.274 266.782 76.7743 248.202 52.9357Z" fill="#FF8947"/>
</svg>
